<svg width="561" height="44" viewBox="0 0 561 44" fill="none" xmlns="http://www.w3.org/2000/svg">
<path d="M49.5743 19.006C49.681 19.823 49.745 20.6543 49.745 21.5C49.745 31.8522 41.3872 40.2731 31.1123 40.2731C20.8375 40.2731 12.4796 31.8522 12.4796 21.5C12.4796 11.1477 20.8339 2.72692 31.1088 2.72692C34.4448 2.72692 37.5781 3.61917 40.2882 5.17433C41.4903 4.77658 42.6924 4.48275 43.8447 4.26417C40.2882 1.58742 35.8781 0 31.1088 0C19.3402 0 9.76953 9.64633 9.76953 21.5C9.76953 33.3537 19.3437 43 31.1088 43C42.8738 43 52.448 33.3537 52.448 21.5C52.448 19.2855 52.1137 17.1462 51.4913 15.1324C50.9756 16.426 50.3461 17.7375 49.5743 19.006Z" fill="url(#paint0_radial_578_415)"/>
<path d="M56.4915 25.6173C55.83 24.8755 55.1151 24.1266 54.3611 23.3741C54.2687 24.4957 54.0908 25.6137 53.8205 26.7138C54.0446 26.9538 54.2651 27.1939 54.4785 27.434C58.4013 31.8415 60.0729 35.6398 58.9526 37.5963C57.8323 39.5528 53.7316 39.9936 47.9807 38.7753C43.535 37.8328 38.4421 36.0018 33.1819 33.4791C32.2003 33.0097 31.5708 32.0099 31.5708 30.9134V26.7568C31.5708 25.6459 32.4386 24.7322 33.5447 24.6748C36.8167 24.5136 41.4473 23.6894 44.9221 20.6758C50.6623 15.695 50.9717 6.76892 50.9824 6.39267L50.9966 5.91967L50.5307 5.86234C50.1608 5.81575 41.3549 4.80525 35.6146 9.78967C32.5204 12.4772 31.0018 16.3293 30.2549 19.3966C29.8246 17.7769 29.0848 16.0426 27.8258 14.5698C24.472 10.6461 18.7922 10.148 18.5539 10.1301L18.0346 10.0871L17.9991 10.6103C17.9813 10.8539 17.6328 16.5837 20.9866 20.5074C22.9035 22.7506 25.6101 23.8686 27.5377 24.4133C28.4304 24.6641 29.0563 25.4847 29.0563 26.4056V31.2323C29.0563 31.2933 28.9923 31.3327 28.939 31.304C28.0178 30.8059 27.0967 30.2899 26.1791 29.756C18.5219 25.3019 11.8996 20.1455 7.53218 15.2363C3.60221 10.836 1.93064 7.03767 3.05095 5.08117C3.76225 3.84134 5.61165 3.2035 8.32174 3.2035C10.2814 3.2035 12.6892 3.54034 15.4419 4.21759C16.2528 3.44717 17.1242 2.74484 18.0489 2.107C16.861 1.76659 15.7016 1.47275 14.5812 1.23267C5.40538 -0.705915 1.96976 1.51217 0.707188 3.7195C-0.555383 5.92325 -0.747436 10.0298 5.50851 17.0638C10.0609 22.1808 16.9214 27.5308 24.8205 32.1246C32.7196 36.7184 40.7467 40.0294 47.4223 41.4413C49.8977 41.9644 51.9569 42.1866 53.6676 42.1866C58.2911 42.1866 60.3717 40.5669 61.2928 38.958C62.5554 36.7543 62.7474 32.6478 56.4915 25.6137V25.6173Z" fill="url(#paint1_radial_578_415)"/>
<path d="M30.1621 10.9507C31.4349 10.9507 32.4667 9.91108 32.4667 8.62867C32.4667 7.34627 31.4349 6.30667 30.1621 6.30667C28.8892 6.30667 27.8574 7.34627 27.8574 8.62867C27.8574 9.91108 28.8892 10.9507 30.1621 10.9507Z" fill="url(#paint2_radial_578_415)"/>
<path d="M543.522 18.1346C547.005 18.0551 552.591 17.8564 557.796 17.618L557.736 18.989C552.691 19.2473 547.266 19.4858 543.722 19.605L543.522 18.1346ZM543.342 11.9947H559.938V13.4055H543.342V11.9947ZM546.765 8.19953H556.335V9.59044H546.765V8.19953ZM548.827 12.8889L550.509 13.3658C549.588 15.2733 548.427 17.5981 547.446 19.0884L546.105 18.6512C547.046 17.1013 548.227 14.6375 548.827 12.8889ZM553.592 14.9951L554.873 14.3195C556.715 15.8893 558.677 18.0352 559.618 19.5454L558.257 20.36C557.356 18.8698 555.374 16.5847 553.592 14.9951ZM551.51 3.49032C549.868 5.91447 546.585 8.63668 543.182 10.3256C543.001 9.96797 542.621 9.43148 542.301 9.11356C545.744 7.48421 549.088 4.60304 550.649 2.05967H552.191C554.313 5.00045 557.816 7.60343 561 8.89499C560.639 9.25265 560.279 9.78914 560.019 10.2263C556.895 8.73603 553.372 6.07343 551.51 3.49032Z" fill="#323232"/>
<path d="M533.992 4.30493H535.453V9.27246H533.992V4.30493ZM531.59 11.2595H532.911V18.9293C532.911 19.6049 532.771 19.9427 532.29 20.1215C531.79 20.3004 531.009 20.3202 529.848 20.3202C529.788 20.0023 529.588 19.5254 529.427 19.1876C530.268 19.2075 531.049 19.2075 531.289 19.2075C531.53 19.1876 531.59 19.128 531.59 18.9095V11.2595ZM537.415 2L538.737 2.3974C538.276 3.15247 537.756 3.84792 537.335 4.36454L536.294 3.98701C536.675 3.43065 537.175 2.55636 537.415 2ZM530.949 2.43714L532.03 2.01987C532.531 2.57623 533.091 3.39091 533.311 3.94727L532.17 4.42415C531.95 3.86779 531.449 3.05312 530.949 2.43714ZM537.375 11.0806L538.256 10.4051C539.077 10.9217 540.018 11.7165 540.458 12.2927L539.538 13.0478C539.117 12.4318 538.176 11.6171 537.375 11.0806ZM528.687 16.3065C530.328 16.1078 532.711 15.8097 535.073 15.4719L535.113 16.5847C532.891 16.9225 530.629 17.2602 528.867 17.5186L528.687 16.3065ZM534.032 10.2858L534.933 11.1999C533.431 11.6767 531.229 12.0145 529.407 12.1934C529.347 11.9351 529.187 11.5178 529.047 11.2396C530.809 11.0409 532.891 10.7031 534.032 10.2858ZM529.487 3.98701H540.178V5.07987H529.487V3.98701ZM530.148 6.37142H539.638V7.40467H530.148V6.37142ZM528.767 8.79558H540.599V9.92817H528.767V8.79558ZM528.747 13.2862H540.639V14.4387H528.747V13.2862ZM535.313 10.4051H536.615C536.695 16.2667 537.916 19.2671 539.317 19.2473C539.658 19.2473 539.838 18.8101 539.938 17.5186C540.198 17.7769 540.599 17.9557 540.899 18.0749C540.679 19.8831 540.198 20.4593 539.197 20.4593C536.735 20.4593 535.514 16.6641 535.313 10.4051ZM538.657 14.8758L539.758 15.3925C538.597 17.4192 536.434 19.128 534.272 20.1017C534.112 19.8632 533.772 19.5056 533.512 19.287C535.594 18.3928 537.636 16.8032 538.657 14.8758ZM523.141 8.04051H528.286V9.23272H523.141V8.04051ZM523.261 2.73519H528.226V3.9274H523.261V2.73519ZM523.141 10.7031H528.286V11.8953H523.141V10.7031ZM522.32 5.33818H528.787V6.57013H522.32V5.33818ZM523.842 13.3856H528.266V19.1678H523.842V17.9358H527.005V14.6175H523.842V13.3856ZM523.101 13.3856H524.342V20.1017H523.101V13.3856Z" fill="#323232"/>
<path d="M514.272 12.4717H519.658V13.6639H514.272V12.4717ZM509.467 4.20573H518.637V5.43768H509.467V4.20573ZM507.606 12.4717H512.911V13.6639H507.606V12.4717ZM502.32 7.2856H508.607V8.65664H502.32V7.2856ZM504.803 2.03989H506.264V20.3005H504.803V2.03989ZM512.47 12.4717H513.732C513.732 12.4717 513.732 12.889 513.712 13.0678C513.552 17.6379 513.391 19.2275 512.971 19.764C512.711 20.1018 512.41 20.2409 511.99 20.2608C511.63 20.3204 511.069 20.3204 510.489 20.2807C510.468 19.923 510.368 19.4064 510.168 19.0884C510.729 19.1481 511.189 19.1481 511.429 19.1481C511.65 19.1481 511.77 19.1083 511.89 18.9295C512.17 18.5917 512.33 17.0418 512.47 12.73V12.4717ZM519.237 12.4717H520.519C520.519 12.4717 520.519 12.889 520.499 13.0678C520.358 17.6181 520.218 19.2275 519.798 19.764C519.518 20.1018 519.237 20.221 518.797 20.2608C518.416 20.3204 517.796 20.3204 517.155 20.2807C517.115 19.9031 516.995 19.3865 516.815 19.0487C517.435 19.1083 517.956 19.1083 518.196 19.1083C518.436 19.1083 518.557 19.0884 518.697 18.9096C518.957 18.5718 519.097 17.0418 519.237 12.73V12.4717ZM518.336 4.20573H519.738C519.738 4.20573 519.698 4.60313 519.678 4.80183C519.417 7.74261 519.157 8.93482 518.677 9.4117C518.356 9.74949 518.016 9.86871 517.496 9.90845C517.055 9.92832 516.234 9.94819 515.393 9.88858C515.353 9.49118 515.213 8.95469 514.993 8.6169C515.814 8.69638 516.615 8.69638 516.935 8.69638C517.235 8.69638 517.395 8.67651 517.536 8.53742C517.876 8.21949 518.116 7.12664 518.336 4.40443V4.20573ZM513.592 2.02002H515.013C514.733 6.05365 513.632 8.77586 509.447 10.3257C509.307 10.0078 508.947 9.51105 508.687 9.27261C512.551 7.94131 513.371 5.53703 513.592 2.02002ZM509.708 10.4251H511.029C510.909 14.6972 510.368 18.234 507.886 20.3403C507.706 20.0621 507.325 19.6249 507.045 19.4262C509.267 17.5584 509.608 14.2997 509.708 10.4251ZM516.294 10.3853H517.636C517.516 14.7766 516.955 18.2142 514.372 20.3005C514.192 20.0025 513.792 19.5653 513.492 19.3468C515.834 17.5386 516.214 14.3594 516.294 10.3853Z" fill="#323232"/>
<path d="M500.158 5.29827C499.998 5.4771 499.758 5.77515 499.618 5.99372C498.817 7.34489 496.915 9.90813 494.633 11.4779L493.291 10.4248C495.153 9.37164 497.035 7.22567 497.676 5.99372C496.274 5.99372 487.225 5.99372 486.264 5.99372C485.523 5.99372 484.783 6.03346 484.002 6.09307V4.30476C484.703 4.40411 485.523 4.48359 486.264 4.48359C487.225 4.48359 496.575 4.48359 497.776 4.48359C498.156 4.48359 498.877 4.42398 499.157 4.3445L500.158 5.29827ZM492.15 7.90125C492.15 13.2861 491.67 16.9223 486.565 19.4657L485.103 18.2734C485.644 18.0946 486.344 17.7568 486.905 17.3793C489.988 15.4916 490.428 12.6701 490.428 9.35177C490.428 8.87489 490.428 8.43774 490.348 7.90125H492.15Z" fill="#323232"/>
<path d="M465.564 8.45779C466.005 8.49753 466.626 8.53727 466.946 8.53727H476.175C476.676 8.53727 477.176 8.49753 477.577 8.45779V10.0474C477.156 10.0077 476.616 9.98779 476.175 9.98779H466.966C466.646 9.98779 465.985 10.0077 465.564 10.0474V8.45779ZM470.65 18.1147V9.35194H472.251V18.1147H470.65ZM464.604 17.2006C465.064 17.2602 465.584 17.2801 466.025 17.2801H477.096C477.576 17.2801 478.037 17.2404 478.437 17.2006V18.8499C478.037 18.8101 477.416 18.7902 477.096 18.7902H466.025C465.584 18.7902 465.084 18.8101 464.604 18.8499V17.2006Z" fill="#323232"/>
<path d="M458.717 5.51722C458.577 5.79541 458.497 6.11333 458.417 6.51073C457.976 8.59709 457.015 11.7962 455.414 13.8428C453.592 16.1676 451.21 18.0155 447.546 19.1481L446.185 17.6579C450.069 16.7041 452.311 15.0151 453.992 12.889C455.414 11.0809 456.335 8.31891 456.615 6.41138C455.454 6.41138 447.526 6.41138 446.365 6.41138C445.564 6.41138 444.883 6.45112 444.383 6.47099V4.70255C444.923 4.78203 445.724 4.84164 446.385 4.84164C447.526 4.84164 455.514 4.84164 456.415 4.84164C456.715 4.84164 457.116 4.82177 457.496 4.74229L458.717 5.51722Z" fill="#323232"/>
<path d="M431.931 18.2933C432.011 17.9953 432.071 17.578 432.071 17.1806C432.071 16.2666 432.071 6.53021 432.071 5.27839C432.071 4.52333 431.971 3.96697 431.971 3.80801H433.813C433.793 3.96697 433.713 4.5432 433.713 5.29827C433.713 6.53021 433.713 16.1473 433.713 16.7434C435.575 15.9089 438.037 14.1007 439.559 11.8554L440.52 13.2264C438.778 15.5512 436.015 17.578 433.693 18.7305C433.352 18.8894 433.152 19.0683 432.992 19.1676L431.931 18.2933ZM422.762 18.2138C424.463 17.0216 425.645 15.2532 426.245 13.3258C426.846 11.4977 426.846 7.54359 426.846 5.31814C426.846 4.7419 426.806 4.30476 426.706 3.88749H428.548C428.527 4.10606 428.447 4.72203 428.447 5.29827C428.447 7.50385 428.387 11.7759 427.847 13.7629C427.246 15.889 425.965 17.8164 424.283 19.2073L422.762 18.2138Z" fill="#323232"/>
<path d="M405.504 8.45779C405.944 8.49753 406.565 8.53727 406.885 8.53727H416.115C416.615 8.53727 417.116 8.49753 417.516 8.45779V10.0474C417.096 10.0077 416.555 9.98779 416.115 9.98779H406.905C406.585 9.98779 405.924 10.0077 405.504 10.0474V8.45779ZM410.589 18.1147V9.35194H412.191V18.1147H410.589ZM404.543 17.2006C405.003 17.2602 405.524 17.2801 405.964 17.2801H417.035C417.516 17.2801 417.976 17.2404 418.377 17.2006V18.8499C417.976 18.8101 417.356 18.7902 417.035 18.7902H405.964C405.524 18.7902 405.023 18.8101 404.543 18.8499V17.2006Z" fill="#323232"/>
<path d="M392.231 2.8145C392.151 3.43047 392.131 3.88749 392.131 4.30476C392.131 4.76177 392.131 6.25203 392.131 6.94748H390.429C390.429 6.17255 390.429 4.76177 390.429 4.30476C390.429 3.88749 390.409 3.43047 390.329 2.8145H392.231ZM399.058 6.6693C398.958 6.94748 398.838 7.48398 398.778 7.86151C398.497 9.45112 397.917 11.9349 396.796 13.8225C395.314 16.4255 392.551 18.4523 388.888 19.4458L387.587 17.9754C388.247 17.8562 389.008 17.6575 389.649 17.419C391.671 16.7633 393.853 15.2929 395.094 13.4053C396.175 11.7163 396.796 9.31203 396.976 7.62307H385.805C385.805 8.43774 385.805 10.5638 385.805 11.1798C385.805 11.5176 385.825 12.0541 385.865 12.3522H384.123C384.183 12.0144 384.203 11.4779 384.203 11.0805C384.203 10.4446 384.203 8.27878 384.203 7.58333C384.203 7.16605 384.203 6.49047 384.123 6.0732C384.704 6.11294 385.304 6.15268 386.005 6.15268H396.616C397.356 6.15268 397.717 6.0732 397.977 5.99372L399.058 6.6693Z" fill="#323232"/>
<path d="M371.41 9.05399C372.571 9.05399 373.532 10.0078 373.532 11.1602C373.532 12.3326 372.571 13.2863 371.41 13.2863C370.229 13.2863 369.268 12.3326 369.268 11.1602C369.268 10.0078 370.229 9.05399 371.41 9.05399Z" fill="#323232"/>
<path d="M345.925 4.16602C347.326 5.09991 349.909 7.1664 351.01 8.25926L349.769 9.53095C348.748 8.4977 346.265 6.35173 344.764 5.37809L345.925 4.16602ZM344.203 17.479C347.687 16.9624 350.289 15.7503 352.191 14.578C355.294 12.6506 357.717 9.70978 358.878 7.24588L359.839 8.95471C358.477 11.4186 356.155 14.1209 353.132 16.0086C351.11 17.2604 348.587 18.4924 345.244 19.1083L344.203 17.479Z" fill="#323232"/>
<path d="M336.394 3.01334C336.895 3.72866 337.596 4.88113 337.996 5.67593L336.915 6.15281C336.515 5.35801 335.874 4.22541 335.333 3.47035L336.394 3.01334ZM338.757 2.45697C339.297 3.19217 340.038 4.3645 340.418 5.0997L339.337 5.57658C338.897 4.7023 338.276 3.64918 337.716 2.91399L338.757 2.45697ZM332.19 3.41074C332.15 3.68892 332.07 4.40424 332.07 4.82152C332.07 5.87463 332.07 7.54372 332.07 8.51736C332.07 10.1268 332.07 16.5648 332.07 17.9954C332.07 19.0286 331.57 19.5651 330.348 19.5651C329.508 19.5651 328.326 19.5254 327.506 19.4261L327.365 17.8563C328.246 18.0153 329.147 18.0749 329.688 18.0749C330.228 18.0749 330.448 17.8563 330.448 17.3198C330.468 16.2468 330.468 9.45125 330.468 8.51736C330.468 7.84177 330.468 5.87463 330.468 4.82152C330.468 4.38437 330.388 3.70879 330.328 3.41074H332.19ZM323.201 6.74892C323.762 6.8284 324.262 6.86814 324.883 6.86814C326.064 6.86814 336.174 6.86814 337.375 6.86814C337.836 6.86814 338.497 6.8284 338.997 6.76879V8.41801C338.476 8.37827 337.876 8.3584 337.395 8.3584C336.194 8.3584 326.124 8.3584 324.903 8.3584C324.282 8.3584 323.722 8.37827 323.201 8.43788V6.74892ZM327.806 11.4383C326.945 13.1272 325.083 15.6706 323.942 16.8827L322.561 15.9488C323.902 14.7367 325.604 12.3722 326.384 10.7627L327.806 11.4383ZM336.154 10.7627C337.235 12.0344 338.817 14.5181 339.618 15.9687L338.156 16.7833C337.355 15.2136 335.854 12.7497 334.793 11.4979L336.154 10.7627Z" fill="#323232"/>
<path d="M303.361 10.1072C303.982 10.1668 305.023 10.2264 306.164 10.2264C307.626 10.2264 315.654 10.2264 317.135 10.2264C318.136 10.2264 318.837 10.1469 319.297 10.1072V12.0544C318.877 12.0346 318.036 11.975 317.155 11.975C315.634 11.975 307.646 11.975 306.164 11.975C305.063 11.975 304.002 12.0147 303.361 12.0544V10.1072Z" fill="#323232"/>
<path d="M291.47 3.09295C291.43 3.54997 291.39 4.22555 291.37 4.70243C291.11 12.8094 288.907 16.5251 284.963 19.2474L283.502 18.075C284.143 17.7372 284.943 17.1809 285.544 16.6245C288.047 14.3792 289.688 11.0211 289.728 4.74217C289.728 4.28516 289.688 3.54997 289.608 3.09295H291.47ZM298.437 7.22594C298.377 7.56373 298.337 7.92139 298.317 8.1797C298.257 10.1071 297.996 15.8694 297.096 17.777C296.695 18.6314 296.055 18.989 294.953 18.989C293.952 18.989 292.791 18.9294 291.75 18.85L291.55 17.2007C292.631 17.3398 293.672 17.4392 294.533 17.4392C295.094 17.4392 295.474 17.2603 295.694 16.7835C296.455 15.2535 296.715 10.3654 296.715 8.23931H286.165C285.364 8.23931 284.563 8.25918 283.842 8.31879V6.6497C284.543 6.70931 285.364 6.74905 286.145 6.74905H296.035C296.575 6.74905 296.955 6.70931 297.296 6.6497L298.437 7.22594Z" fill="#323232"/>
<path d="M264.223 5.09985C265.004 5.13959 265.524 5.13959 266.005 5.13959C267.066 5.13959 275.775 5.13959 276.756 5.13959C277.176 5.13959 277.897 5.13959 278.517 5.11972C278.477 5.59661 278.477 6.15297 278.477 6.64972C278.477 7.58362 278.477 15.6906 278.477 16.4457C278.477 17.0815 278.497 18.6314 278.517 18.85H276.776C276.796 18.6314 276.816 17.4988 276.816 16.6643C276.816 15.9291 276.816 6.70933 276.816 6.70933H265.885C265.885 6.70933 265.885 15.8496 265.885 16.6643C265.885 17.32 265.905 18.5917 265.905 18.85H264.203C264.203 18.5917 264.243 17.1411 264.243 16.4457C264.243 15.631 264.243 7.42466 264.243 6.64972C264.243 6.19271 264.243 5.59661 264.223 5.09985ZM277.476 16.1675V17.7174H265.084V16.1675H277.476Z" fill="#323232"/>
<path d="M256.536 2.91414C257.036 3.6096 257.757 4.82167 258.157 5.63635L257.076 6.11323C256.696 5.29856 256.015 4.10635 255.474 3.35128L256.536 2.91414ZM258.718 2.11934C259.258 2.83466 260.019 4.08648 260.399 4.82167L259.338 5.29856C258.898 4.42427 258.237 3.31154 257.677 2.55648L258.718 2.11934ZM247.126 16.5053C247.126 14.6971 247.126 7.6631 247.126 5.537C247.126 4.94089 247.086 4.28518 246.986 3.70895H248.888C248.808 4.28518 248.748 4.96076 248.748 5.537C248.748 7.64323 248.748 14.1209 248.748 16.088C248.748 17.4591 249.268 17.8962 251.651 17.8962C253.973 17.8962 255.895 17.6975 257.897 17.32L257.837 19.0288C256.035 19.2871 254.053 19.4461 251.551 19.4461C247.807 19.4461 247.126 18.4724 247.126 16.5053ZM258.758 7.64323C258.598 7.84193 258.397 8.17972 258.257 8.43803C257.336 10.0873 255.755 12.571 254.153 14.2202L252.752 13.3857C254.253 12.0345 255.735 9.84881 256.335 8.6566C255.715 8.7957 244.904 10.9218 242.522 11.4583L242.201 9.7892C244.744 9.47128 254.994 7.42466 256.516 7.08686C256.936 6.98751 257.316 6.86829 257.577 6.7292L258.758 7.64323Z" fill="#323232"/>
<path d="M222.54 6.2125H240.018V7.72263H222.54V6.2125ZM226.544 15.0746H235.873V16.5847H226.544V15.0746ZM230.448 2.03978H232.03V20.3004H230.448V2.03978ZM229.988 6.70926L231.329 7.16627C229.547 11.3787 226.404 15.1739 222.94 17.1808C222.7 16.8033 222.2 16.2469 221.859 15.9489C225.203 14.2202 228.386 10.5243 229.988 6.70926ZM232.53 6.76887C234.112 10.5442 237.255 14.1605 240.718 15.8098C240.338 16.1277 239.817 16.7238 239.577 17.1411C236.034 15.1938 232.95 11.3986 231.189 7.22588L232.53 6.76887Z" fill="#323232"/>
<path d="M204.764 3.37092H217.877V20.0022H216.295V4.88105H206.305V20.0817H204.764V3.37092ZM205.785 10.2659H216.956V11.7362H205.785V10.2659ZM205.765 17.2999H216.996V18.7901H205.765V17.2999Z" fill="#323232"/>
<path d="M190.189 2.63598H191.851C191.691 5.75559 191.39 15.6708 183.102 20.1415C182.842 19.764 182.341 19.307 181.881 18.9692C190.049 14.8362 190.049 5.2787 190.189 2.63598ZM191.791 3.03338C191.851 4.58325 192.431 15.1343 200.68 18.8897C200.239 19.2275 199.779 19.7243 199.539 20.1415C191.05 16.1079 190.489 5.00052 190.349 3.17247L191.791 3.03338Z" fill="#323232"/>
<path d="M167.346 10.3852H180.219V11.796H167.346V10.3852ZM168.367 5.27861H179.278V6.70926H168.367V5.27861ZM172.952 2.03978H174.493V11.3986H172.952V2.03978ZM167.366 17.8763C170.089 17.757 174.453 17.5186 178.598 17.2802V18.6313C174.614 18.9294 170.429 19.2076 167.587 19.3864L167.366 17.8763ZM175.434 14.4785L176.716 13.8228C178.237 15.5912 179.899 17.9557 180.56 19.5652L179.158 20.3402C178.538 18.7704 176.936 16.2867 175.434 14.4785ZM171.611 11.3191L173.232 11.7761C172.351 14.0811 171.15 16.9225 170.149 18.7307L168.828 18.2737C169.809 16.4257 170.99 13.4452 171.611 11.3191ZM163.022 3.27173L163.863 2.159C165.224 2.65575 166.946 3.51017 167.807 4.20562L166.946 5.45744C166.105 4.74212 164.423 3.80822 163.022 3.27173ZM161.961 8.75588L162.742 7.60341C164.103 8.04055 165.865 8.81549 166.766 9.45133L165.945 10.7031C165.084 10.0673 163.362 9.23276 161.961 8.75588ZM162.662 19.0883C163.683 17.5583 165.184 14.9355 166.285 12.6902L167.406 13.6241C166.405 15.7303 165.084 18.2141 163.963 20.062L162.662 19.0883Z" fill="#323232"/>
<path d="M145.363 7.66294H157.215V8.9545H145.363V7.66294ZM153.071 5.11957H154.492V15.452C154.492 16.2667 154.292 16.6641 153.691 16.8628C153.131 17.0814 152.15 17.0814 150.588 17.0814C150.528 16.7237 150.328 16.1674 150.148 15.7898C151.289 15.8296 152.35 15.8296 152.67 15.8097C152.97 15.7898 153.071 15.7103 153.071 15.4322V5.11957ZM146.864 10.5242L147.965 9.94801C149.007 11.021 150.028 12.5311 150.428 13.5644L149.267 14.2002C148.886 13.167 147.885 11.6171 146.864 10.5242ZM142.82 2.95373H159.597V20.3003H158.056V4.38437H144.322V20.3003H142.82V2.95373ZM143.701 17.9755H158.676V19.4062H143.701V17.9755Z" fill="#323232"/>
<path d="M129.266 18.2737H140.578V19.7441H129.266V18.2737ZM130.047 8.53731H140.157V9.96795H130.047V8.53731ZM134.351 2.17887H135.873V18.989H134.351V2.17887ZM122.259 5.75549H128.906V7.12653H122.259V5.75549ZM125.422 11.7165L126.904 9.94809V20.3203H125.422V11.7165ZM125.422 2.03978H126.904V6.43107H125.422V2.03978ZM126.784 10.3455C127.465 10.8224 129.787 12.8491 130.367 13.3459L129.446 14.558C128.706 13.7035 126.744 11.8159 125.923 11.1006L126.784 10.3455ZM128.345 5.75549H128.646L128.926 5.69588L129.787 6.25224C128.265 9.90834 125.202 13.2068 122.339 15.0348C122.179 14.6573 121.819 13.9618 121.559 13.7035C124.281 12.1139 127.144 9.09367 128.345 6.07341V5.75549Z" fill="#323232"/>
<path d="M112.571 2.81471H117.036V4.12614H112.571V2.81471ZM110.849 10.723H118.217V12.0543H110.849V10.723ZM116.375 2.81471H117.756V7.40471C117.756 7.78224 117.756 8.00081 117.836 8.06042C117.896 8.1399 118.017 8.15977 118.157 8.15977C118.297 8.15977 118.537 8.15977 118.717 8.15977C118.877 8.15977 119.058 8.1399 119.138 8.08029C119.218 8.02068 119.298 7.90146 119.338 7.66302C119.378 7.38484 119.398 6.80861 119.418 6.03367C119.698 6.27211 120.179 6.51056 120.539 6.62978C120.519 7.36497 120.459 8.19951 120.339 8.49757C120.219 8.81549 120.019 9.03406 119.758 9.15328C119.538 9.2725 119.158 9.33211 118.837 9.33211C118.597 9.33211 118.057 9.33211 117.836 9.33211C117.456 9.33211 117.016 9.23276 116.755 8.97445C116.475 8.73601 116.375 8.41809 116.375 7.32523V2.81471ZM117.956 10.723H118.217L118.477 10.6634L119.438 11.0012C118.117 16.0681 114.713 18.9691 110.689 20.3402C110.529 19.9626 110.149 19.4063 109.868 19.0883C113.572 17.9955 116.835 15.2335 117.956 10.9615V10.723ZM112.831 12.0146C114.093 15.4322 116.795 18.075 120.659 19.0685C120.339 19.3665 119.918 19.9428 119.718 20.3004C115.734 19.1082 113.012 16.227 111.59 12.3325L112.831 12.0146ZM111.93 2.81471H113.272V5.43757C113.272 6.96757 112.951 8.91484 111.31 10.1865C111.09 9.92821 110.549 9.4712 110.249 9.31224C111.71 8.17964 111.93 6.66952 111.93 5.39783V2.81471ZM105.744 12.5312H106.725V17.2205H105.744V12.5312ZM103.922 4.78186H108.547V5.99393H103.922V4.78186ZM108.147 4.78186H109.408V18.7903C109.408 19.4857 109.268 19.8633 108.807 20.0818C108.327 20.2805 107.626 20.3203 106.465 20.3203C106.405 19.9825 106.225 19.4261 106.045 19.0883C106.865 19.1082 107.606 19.1082 107.826 19.1082C108.067 19.1082 108.147 19.0287 108.147 18.7903V4.78186ZM103.302 4.78186H104.543V11.9947C104.543 14.558 104.323 18.0551 102.881 20.3004C102.661 20.0818 102.121 19.7639 101.82 19.6248C103.182 17.459 103.302 14.399 103.302 11.9947V4.78186ZM101.84 11.1006C103.962 10.9217 107.186 10.5839 110.329 10.2461L110.349 11.4582C107.326 11.7761 104.203 12.1338 102 12.3722L101.84 11.1006ZM105.264 7.16627L106.205 6.78874C106.745 7.60341 107.206 8.71614 107.366 9.4712L106.345 9.88847C106.205 9.13341 105.764 8.02068 105.264 7.16627ZM105.804 2.03978L107.406 2.3577C107.006 3.41082 106.545 4.60302 106.205 5.35809L104.963 5.06004C105.264 4.20562 105.624 2.91407 105.804 2.03978Z" fill="#323232"/>
<path d="M82 10.1469H100.318V11.7763H82V10.1469Z" fill="#323232"/>
<path d="M86.4659 32.2727H87.2628V38.5668C87.2599 39.1349 87.1577 39.6094 86.956 39.9901C86.7543 40.3679 86.4759 40.6506 86.1207 40.8381C85.7656 41.0256 85.358 41.1193 84.8977 41.1193C84.446 41.1193 84.0426 41.0355 83.6875 40.8679C83.3324 40.7003 83.0526 40.4645 82.848 40.1605C82.6463 39.8565 82.5455 39.5 82.5455 39.0909H83.3295C83.3295 39.3494 83.3977 39.5781 83.5341 39.777C83.6705 39.973 83.8565 40.1264 84.0923 40.2372C84.331 40.348 84.5994 40.4034 84.8977 40.4034C85.2074 40.4034 85.4787 40.3381 85.7116 40.2074C85.9474 40.0767 86.1321 39.8764 86.2656 39.6065C86.3991 39.3338 86.4659 38.9872 86.4659 38.5668V32.2727ZM91.7314 41.1491C91.3365 41.1491 90.9757 41.0724 90.649 40.919C90.3223 40.7628 90.0624 40.5384 89.8692 40.2457C89.676 39.9503 89.5794 39.5923 89.5794 39.1719C89.5794 38.848 89.6405 38.5753 89.7627 38.3537C89.8848 38.1321 90.0581 37.9503 90.2826 37.8082C90.507 37.6662 90.7726 37.554 91.0794 37.4716C91.3863 37.3892 91.7243 37.3253 92.0936 37.2798C92.4601 37.2344 92.7698 37.1946 93.0226 37.1605C93.2783 37.1264 93.4729 37.0724 93.6064 36.9986C93.7399 36.9247 93.8067 36.8054 93.8067 36.6406V36.4872C93.8067 36.0412 93.6732 35.6903 93.4061 35.4347C93.1419 35.1761 92.7613 35.0469 92.2641 35.0469C91.7925 35.0469 91.4076 35.1506 91.1093 35.358C90.8138 35.5653 90.6064 35.8097 90.4871 36.0909L89.7669 35.831C89.9147 35.473 90.1192 35.1875 90.3806 34.9744C90.6419 34.7585 90.9345 34.6037 91.2584 34.5099C91.5823 34.4134 91.9104 34.3651 92.2428 34.3651C92.4928 34.3651 92.7527 34.3977 93.0226 34.4631C93.2953 34.5284 93.5482 34.642 93.7811 34.804C94.0141 34.9631 94.203 35.1861 94.3479 35.473C94.4928 35.7571 94.5652 36.1179 94.5652 36.5554V41H93.8067V39.9645H93.7598C93.6689 40.1577 93.534 40.3452 93.355 40.527C93.176 40.7088 92.9516 40.858 92.6817 40.9744C92.4118 41.0909 92.0951 41.1491 91.7314 41.1491ZM91.8337 40.4545C92.2371 40.4545 92.5865 40.3651 92.882 40.1861C93.1774 40.0071 93.4047 39.7699 93.5638 39.4744C93.7257 39.1761 93.8067 38.848 93.8067 38.4901V37.544C93.7499 37.598 93.6547 37.6463 93.5212 37.6889C93.3905 37.7315 93.2385 37.7699 93.0652 37.804C92.8948 37.8352 92.7243 37.8622 92.5539 37.8849C92.3834 37.9077 92.23 37.9276 92.0936 37.9446C91.7243 37.9901 91.409 38.0611 91.1476 38.1577C90.8863 38.2543 90.686 38.3878 90.5468 38.5582C90.4076 38.7259 90.338 38.9418 90.338 39.206C90.338 39.6037 90.48 39.9119 90.7641 40.1307C91.0482 40.3466 91.4047 40.4545 91.8337 40.4545ZM97.063 43.4545V34.4545H97.8002V35.7031H97.8897C97.9806 35.5071 98.1056 35.3068 98.2647 35.1023C98.4238 34.8949 98.634 34.7202 98.8954 34.5781C99.1596 34.4361 99.492 34.3651 99.8925 34.3651C100.432 34.3651 100.904 34.5071 101.307 34.7912C101.714 35.0724 102.029 35.4673 102.253 35.9759C102.481 36.4815 102.594 37.071 102.594 37.7443C102.594 38.4205 102.481 39.0128 102.253 39.5213C102.029 40.0298 101.714 40.4261 101.307 40.7102C100.904 40.9943 100.435 41.1364 99.9011 41.1364C99.5062 41.1364 99.1752 41.0653 98.9082 40.9233C98.6439 40.7812 98.4295 40.6065 98.2647 40.3991C98.1028 40.1889 97.9778 39.9844 97.8897 39.7855H97.8215V43.4545H97.063ZM97.813 37.7315C97.813 38.2599 97.8911 38.7287 98.0474 39.1378C98.2064 39.544 98.4337 39.8636 98.7292 40.0966C99.0275 40.3267 99.3883 40.4418 99.8116 40.4418C100.246 40.4418 100.613 40.3224 100.911 40.0838C101.212 39.8423 101.441 39.517 101.597 39.108C101.756 38.6989 101.836 38.2401 101.836 37.7315C101.836 37.2287 101.758 36.7756 101.601 36.3722C101.448 35.9687 101.221 35.6491 100.92 35.4134C100.618 35.1747 100.249 35.0554 99.8116 35.0554C99.3854 35.0554 99.0232 35.1705 98.7249 35.4006C98.4266 35.6278 98.1993 35.9432 98.0431 36.3466C97.8897 36.7472 97.813 37.2088 97.813 37.7315ZM106.566 41.1491C106.172 41.1491 105.811 41.0724 105.484 40.919C105.157 40.7628 104.897 40.5384 104.704 40.2457C104.511 39.9503 104.414 39.5923 104.414 39.1719C104.414 38.848 104.476 38.5753 104.598 38.3537C104.72 38.1321 104.893 37.9503 105.118 37.8082C105.342 37.6662 105.608 37.554 105.914 37.4716C106.221 37.3892 106.559 37.3253 106.929 37.2798C107.295 37.2344 107.605 37.1946 107.858 37.1605C108.113 37.1264 108.308 37.0724 108.441 36.9986C108.575 36.9247 108.642 36.8054 108.642 36.6406V36.4872C108.642 36.0412 108.508 35.6903 108.241 35.4347C107.977 35.1761 107.596 35.0469 107.099 35.0469C106.628 35.0469 106.243 35.1506 105.944 35.358C105.649 35.5653 105.441 35.8097 105.322 36.0909L104.602 35.831C104.75 35.473 104.954 35.1875 105.216 34.9744C105.477 34.7585 105.77 34.6037 106.093 34.5099C106.417 34.4134 106.745 34.3651 107.078 34.3651C107.328 34.3651 107.588 34.3977 107.858 34.4631C108.13 34.5284 108.383 34.642 108.616 34.804C108.849 34.9631 109.038 35.1861 109.183 35.473C109.328 35.7571 109.4 36.1179 109.4 36.5554V41H108.642V39.9645H108.595C108.504 40.1577 108.369 40.3452 108.19 40.527C108.011 40.7088 107.787 40.858 107.517 40.9744C107.247 41.0909 106.93 41.1491 106.566 41.1491ZM106.669 40.4545C107.072 40.4545 107.422 40.3651 107.717 40.1861C108.012 40.0071 108.24 39.7699 108.399 39.4744C108.561 39.1761 108.642 38.848 108.642 38.4901V37.544C108.585 37.598 108.49 37.6463 108.356 37.6889C108.226 37.7315 108.074 37.7699 107.9 37.804C107.73 37.8352 107.559 37.8622 107.389 37.8849C107.218 37.9077 107.065 37.9276 106.929 37.9446C106.559 37.9901 106.244 38.0611 105.983 38.1577C105.721 38.2543 105.521 38.3878 105.382 38.5582C105.243 38.7259 105.173 38.9418 105.173 39.206C105.173 39.6037 105.315 39.9119 105.599 40.1307C105.883 40.3466 106.24 40.4545 106.669 40.4545ZM112.657 36.9091V41H111.898V34.4545H112.635V35.4815H112.703C112.857 35.1463 113.095 34.8778 113.419 34.6761C113.746 34.4716 114.149 34.3693 114.63 34.3693C115.07 34.3693 115.456 34.4616 115.789 34.6463C116.124 34.8281 116.384 35.0966 116.568 35.4517C116.756 35.8068 116.85 36.2429 116.85 36.7599V41H116.091V36.8068C116.091 36.2699 115.941 35.8452 115.639 35.5327C115.341 35.2202 114.941 35.0639 114.438 35.0639C114.094 35.0639 113.789 35.1378 113.522 35.2855C113.255 35.4332 113.043 35.6463 112.887 35.9247C112.733 36.2003 112.657 36.5284 112.657 36.9091ZM122.995 41V40.3991L127.84 32.9886H122.969V32.2727H128.79V32.8736L123.941 40.2841H128.833V41H122.995ZM133.726 41.1364C133.116 41.1364 132.587 40.9943 132.141 40.7102C131.695 40.4233 131.35 40.027 131.106 39.5213C130.864 39.0128 130.744 38.4276 130.744 37.7656C130.744 37.1065 130.864 36.5213 131.106 36.0099C131.35 35.4957 131.687 35.0937 132.116 34.804C132.548 34.5114 133.046 34.3651 133.611 34.3651C133.967 34.3651 134.309 34.4304 134.638 34.5611C134.968 34.6889 135.263 34.8864 135.525 35.1534C135.789 35.4176 135.998 35.7514 136.151 36.1548C136.305 36.5554 136.381 37.0298 136.381 37.5781V37.9531H131.268V37.2841H135.606C135.606 36.8636 135.521 36.4858 135.35 36.1506C135.182 35.8125 134.948 35.5455 134.647 35.3494C134.349 35.1534 134.003 35.0554 133.611 35.0554C133.197 35.0554 132.832 35.1662 132.516 35.3878C132.201 35.6094 131.954 35.902 131.775 36.2656C131.599 36.6293 131.509 37.027 131.506 37.4588V37.8594C131.506 38.3793 131.596 38.8338 131.775 39.223C131.957 39.6094 132.214 39.9091 132.546 40.1222C132.878 40.3352 133.272 40.4418 133.726 40.4418C134.036 40.4418 134.307 40.3935 134.54 40.2969C134.776 40.2003 134.974 40.071 135.133 39.9091C135.295 39.7443 135.417 39.5639 135.499 39.3679L136.219 39.6023C136.12 39.8778 135.957 40.1321 135.729 40.3651C135.505 40.598 135.224 40.7855 134.886 40.9276C134.55 41.0668 134.164 41.1364 133.726 41.1364ZM138.533 41V34.4545H139.27V35.4602H139.325C139.456 35.1307 139.683 34.8651 140.007 34.6634C140.334 34.4588 140.703 34.3565 141.115 34.3565C141.178 34.3565 141.247 34.358 141.324 34.3608C141.401 34.3636 141.465 34.3665 141.516 34.3693V35.1406C141.482 35.1349 141.422 35.1264 141.337 35.1151C141.252 35.1037 141.159 35.098 141.06 35.098C140.719 35.098 140.415 35.1705 140.148 35.3153C139.884 35.4574 139.675 35.6548 139.521 35.9077C139.368 36.1605 139.291 36.4489 139.291 36.7727V41H138.533ZM145.635 41.1364C145.07 41.1364 144.57 40.9929 144.135 40.706C143.703 40.419 143.365 40.0227 143.121 39.517C142.876 39.0085 142.754 38.4219 142.754 37.7571C142.754 37.0866 142.876 36.4972 143.121 35.9886C143.365 35.4773 143.703 35.0795 144.135 34.7955C144.57 34.5085 145.07 34.3651 145.635 34.3651C146.2 34.3651 146.699 34.5085 147.131 34.7955C147.563 35.0824 147.901 35.4801 148.145 35.9886C148.392 36.4972 148.516 37.0866 148.516 37.7571C148.516 38.4219 148.394 39.0085 148.149 39.517C147.905 40.0227 147.565 40.419 147.131 40.706C146.699 40.9929 146.2 41.1364 145.635 41.1364ZM145.635 40.4418C146.09 40.4418 146.474 40.3196 146.79 40.0753C147.105 39.831 147.344 39.5057 147.506 39.0994C147.67 38.6932 147.753 38.2457 147.753 37.7571C147.753 37.2685 147.67 36.8196 147.506 36.4105C147.344 36.0014 147.105 35.6733 146.79 35.4261C146.474 35.179 146.09 35.0554 145.635 35.0554C145.183 35.0554 144.798 35.179 144.48 35.4261C144.165 35.6733 143.925 36.0014 143.76 36.4105C143.598 36.8196 143.517 37.2685 143.517 37.7571C143.517 38.2457 143.598 38.6932 143.76 39.0994C143.925 39.5057 144.165 39.831 144.48 40.0753C144.795 40.3196 145.18 40.4418 145.635 40.4418ZM161.509 35H160.708C160.648 34.7017 160.54 34.4261 160.384 34.1733C160.23 33.9176 160.037 33.6946 159.804 33.5043C159.571 33.3139 159.307 33.1662 159.012 33.0611C158.716 32.956 158.396 32.9034 158.053 32.9034C157.502 32.9034 156.999 33.0469 156.544 33.3338C156.092 33.6207 155.73 34.0426 155.458 34.5994C155.188 35.1534 155.053 35.8324 155.053 36.6364C155.053 37.446 155.188 38.1278 155.458 38.6818C155.73 39.2358 156.092 39.6562 156.544 39.9432C156.999 40.2273 157.502 40.3693 158.053 40.3693C158.396 40.3693 158.716 40.3168 159.012 40.2116C159.307 40.1065 159.571 39.9602 159.804 39.7727C160.037 39.5824 160.23 39.3594 160.384 39.1037C160.54 38.848 160.648 38.571 160.708 38.2727H161.509C161.438 38.6733 161.304 39.0469 161.108 39.3935C160.915 39.7372 160.668 40.0384 160.367 40.2969C160.068 40.5554 159.725 40.7571 159.335 40.902C158.946 41.0469 158.519 41.1193 158.053 41.1193C157.32 41.1193 156.669 40.9361 156.101 40.5696C155.533 40.2003 155.087 39.6804 154.763 39.0099C154.442 38.3395 154.281 37.5483 154.281 36.6364C154.281 35.7244 154.442 34.9332 154.763 34.2628C155.087 33.5923 155.533 33.0739 156.101 32.7074C156.669 32.3381 157.32 32.1534 158.053 32.1534C158.519 32.1534 158.946 32.2259 159.335 32.3707C159.725 32.5128 160.068 32.7145 160.367 32.9759C160.668 33.2344 160.915 33.5355 161.108 33.8793C161.304 34.223 161.438 34.5966 161.509 35ZM165.531 41.1491C165.136 41.1491 164.775 41.0724 164.449 40.919C164.122 40.7628 163.862 40.5384 163.669 40.2457C163.476 39.9503 163.379 39.5923 163.379 39.1719C163.379 38.848 163.44 38.5753 163.562 38.3537C163.684 38.1321 163.858 37.9503 164.082 37.8082C164.307 37.6662 164.572 37.554 164.879 37.4716C165.186 37.3892 165.524 37.3253 165.893 37.2798C166.26 37.2344 166.569 37.1946 166.822 37.1605C167.078 37.1264 167.272 37.0724 167.406 36.9986C167.539 36.9247 167.606 36.8054 167.606 36.6406V36.4872C167.606 36.0412 167.473 35.6903 167.206 35.4347C166.941 35.1761 166.561 35.0469 166.064 35.0469C165.592 35.0469 165.207 35.1506 164.909 35.358C164.613 35.5653 164.406 35.8097 164.287 36.0909L163.566 35.831C163.714 35.473 163.919 35.1875 164.18 34.9744C164.441 34.7585 164.734 34.6037 165.058 34.5099C165.382 34.4134 165.71 34.3651 166.042 34.3651C166.292 34.3651 166.552 34.3977 166.822 34.4631C167.095 34.5284 167.348 34.642 167.581 34.804C167.814 34.9631 168.003 35.1861 168.147 35.473C168.292 35.7571 168.365 36.1179 168.365 36.5554V41H167.606V39.9645H167.559C167.468 40.1577 167.334 40.3452 167.155 40.527C166.976 40.7088 166.751 40.858 166.481 40.9744C166.211 41.0909 165.895 41.1491 165.531 41.1491ZM165.633 40.4545C166.037 40.4545 166.386 40.3651 166.682 40.1861C166.977 40.0071 167.204 39.7699 167.363 39.4744C167.525 39.1761 167.606 38.848 167.606 38.4901V37.544C167.549 37.598 167.454 37.6463 167.321 37.6889C167.19 37.7315 167.038 37.7699 166.865 37.804C166.694 37.8352 166.524 37.8622 166.353 37.8849C166.183 37.9077 166.03 37.9276 165.893 37.9446C165.524 37.9901 165.209 38.0611 164.947 38.1577C164.686 38.2543 164.485 38.3878 164.346 38.5582C164.207 38.7259 164.137 38.9418 164.137 39.206C164.137 39.6037 164.28 39.9119 164.564 40.1307C164.848 40.3466 165.204 40.4545 165.633 40.4545ZM170.863 41V34.4545H171.6V35.4602H171.655C171.786 35.1307 172.013 34.8651 172.337 34.6634C172.664 34.4588 173.033 34.3565 173.445 34.3565C173.507 34.3565 173.577 34.358 173.654 34.3608C173.73 34.3636 173.794 34.3665 173.845 34.3693V35.1406C173.811 35.1349 173.752 35.1264 173.666 35.1151C173.581 35.1037 173.489 35.098 173.39 35.098C173.049 35.098 172.745 35.1705 172.478 35.3153C172.213 35.4574 172.005 35.6548 171.851 35.9077C171.698 36.1605 171.621 36.4489 171.621 36.7727V41H170.863ZM175.778 41V32.2727H176.54V35.7031H176.608C176.694 35.5071 176.816 35.3054 176.975 35.098C177.137 34.8906 177.349 34.7173 177.61 34.5781C177.874 34.4361 178.207 34.3651 178.607 34.3651C179.144 34.3651 179.616 34.5071 180.022 34.7912C180.428 35.0724 180.745 35.4673 180.972 35.9759C181.199 36.4815 181.313 37.071 181.313 37.7443C181.313 38.4205 181.199 39.0128 180.972 39.5213C180.748 40.0298 180.432 40.4261 180.026 40.7102C179.623 40.9943 179.154 41.1364 178.62 41.1364C178.222 41.1364 177.89 41.0653 177.623 40.9233C177.358 40.7812 177.145 40.6065 176.983 40.3991C176.822 40.1889 176.697 39.9844 176.608 39.7855H176.515V41H175.778ZM176.528 37.7315C176.528 38.2599 176.606 38.7287 176.762 39.1378C176.921 39.544 177.148 39.8636 177.444 40.0966C177.742 40.3267 178.103 40.4418 178.526 40.4418C178.961 40.4418 179.329 40.3224 179.63 40.0838C179.931 39.8423 180.16 39.517 180.316 39.108C180.472 38.6989 180.55 38.2401 180.55 37.7315C180.55 37.2287 180.472 36.7756 180.316 36.3722C180.162 35.9687 179.935 35.6491 179.634 35.4134C179.333 35.1747 178.964 35.0554 178.526 35.0554C178.1 35.0554 177.738 35.1705 177.439 35.4006C177.144 35.6278 176.918 35.9432 176.762 36.3466C176.606 36.7472 176.528 37.2088 176.528 37.7315ZM186.003 41.1364C185.438 41.1364 184.938 40.9929 184.503 40.706C184.071 40.419 183.733 40.0227 183.489 39.517C183.245 39.0085 183.123 38.4219 183.123 37.7571C183.123 37.0866 183.245 36.4972 183.489 35.9886C183.733 35.4773 184.071 35.0795 184.503 34.7955C184.938 34.5085 185.438 34.3651 186.003 34.3651C186.569 34.3651 187.067 34.5085 187.499 34.7955C187.931 35.0824 188.269 35.4801 188.513 35.9886C188.76 36.4972 188.884 37.0866 188.884 37.7571C188.884 38.4219 188.762 39.0085 188.517 39.517C188.273 40.0227 187.934 40.419 187.499 40.706C187.067 40.9929 186.569 41.1364 186.003 41.1364ZM186.003 40.4418C186.458 40.4418 186.843 40.3196 187.158 40.0753C187.473 39.831 187.712 39.5057 187.874 39.0994C188.039 38.6932 188.121 38.2457 188.121 37.7571C188.121 37.2685 188.039 36.8196 187.874 36.4105C187.712 36.0014 187.473 35.6733 187.158 35.4261C186.843 35.179 186.458 35.0554 186.003 35.0554C185.552 35.0554 185.167 35.179 184.848 35.4261C184.533 35.6733 184.293 36.0014 184.128 36.4105C183.966 36.8196 183.885 37.2685 183.885 37.7571C183.885 38.2457 183.966 38.6932 184.128 39.0994C184.293 39.5057 184.533 39.831 184.848 40.0753C185.164 40.3196 185.549 40.4418 186.003 40.4418ZM191.788 36.9091V41H191.029V34.4545H191.766V35.4815H191.834C191.988 35.1463 192.227 34.8778 192.55 34.6761C192.877 34.4716 193.28 34.3693 193.761 34.3693C194.201 34.3693 194.587 34.4616 194.92 34.6463C195.255 34.8281 195.515 35.0966 195.7 35.4517C195.887 35.8068 195.981 36.2429 195.981 36.7599V41H195.222V36.8068C195.222 36.2699 195.072 35.8452 194.771 35.5327C194.472 35.2202 194.072 35.0639 193.569 35.0639C193.225 35.0639 192.92 35.1378 192.653 35.2855C192.386 35.4332 192.174 35.6463 192.018 35.9247C191.864 36.2003 191.788 36.5284 191.788 36.9091ZM203.988 41L201.597 32.2727H202.407L204.384 39.777H204.452L206.43 32.2727H207.35L209.327 39.777H209.396L211.373 32.2727H212.187L209.796 41H208.944L206.92 33.598H206.864L204.84 41H203.988ZM215.986 41.1364C215.376 41.1364 214.847 40.9943 214.401 40.7102C213.955 40.4233 213.61 40.027 213.366 39.5213C213.124 39.0128 213.004 38.4276 213.004 37.7656C213.004 37.1065 213.124 36.5213 213.366 36.0099C213.61 35.4957 213.947 35.0937 214.376 34.804C214.807 34.5114 215.306 34.3651 215.871 34.3651C216.227 34.3651 216.569 34.4304 216.898 34.5611C217.228 34.6889 217.523 34.8864 217.785 35.1534C218.049 35.4176 218.258 35.7514 218.411 36.1548C218.565 36.5554 218.641 37.0298 218.641 37.5781V37.9531H213.528V37.2841H217.866C217.866 36.8636 217.781 36.4858 217.61 36.1506C217.442 35.8125 217.208 35.5455 216.907 35.3494C216.609 35.1534 216.263 35.0554 215.871 35.0554C215.457 35.0554 215.092 35.1662 214.776 35.3878C214.461 35.6094 214.214 35.902 214.035 36.2656C213.859 36.6293 213.769 37.027 213.766 37.4588V37.8594C213.766 38.3793 213.856 38.8338 214.035 39.223C214.217 39.6094 214.474 39.9091 214.806 40.1222C215.138 40.3352 215.532 40.4418 215.986 40.4418C216.296 40.4418 216.567 40.3935 216.8 40.2969C217.036 40.2003 217.234 40.071 217.393 39.9091C217.555 39.7443 217.677 39.5639 217.759 39.3679L218.479 39.6023C218.38 39.8778 218.217 40.1321 217.989 40.3651C217.765 40.598 217.484 40.7855 217.146 40.9276C216.81 41.0668 216.424 41.1364 215.986 41.1364ZM221.551 32.2727V41H220.793V32.2727H221.551ZM226.732 34.4545V35.1151H223.514V34.4545H226.732ZM224.52 41V33.4957C224.52 33.1435 224.601 32.8466 224.763 32.6051C224.928 32.3636 225.142 32.1804 225.406 32.0554C225.671 31.9304 225.95 31.8679 226.246 31.8679C226.445 31.8679 226.609 31.8849 226.74 31.919C226.874 31.9503 226.979 31.9815 227.055 32.0128L226.834 32.6776C226.777 32.6605 226.707 32.6406 226.625 32.6179C226.543 32.5952 226.439 32.5838 226.314 32.5838C225.984 32.5838 225.73 32.6761 225.551 32.8608C225.372 33.0455 225.283 33.3097 225.283 33.6534L225.279 41H224.52ZM230.378 41.1491C229.983 41.1491 229.622 41.0724 229.295 40.919C228.969 40.7628 228.709 40.5384 228.516 40.2457C228.322 39.9503 228.226 39.5923 228.226 39.1719C228.226 38.848 228.287 38.5753 228.409 38.3537C228.531 38.1321 228.705 37.9503 228.929 37.8082C229.153 37.6662 229.419 37.554 229.726 37.4716C230.033 37.3892 230.371 37.3253 230.74 37.2798C231.107 37.2344 231.416 37.1946 231.669 37.1605C231.925 37.1264 232.119 37.0724 232.253 36.9986C232.386 36.9247 232.453 36.8054 232.453 36.6406V36.4872C232.453 36.0412 232.32 35.6903 232.053 35.4347C231.788 35.1761 231.408 35.0469 230.91 35.0469C230.439 35.0469 230.054 35.1506 229.756 35.358C229.46 35.5653 229.253 35.8097 229.134 36.0909L228.413 35.831C228.561 35.473 228.766 35.1875 229.027 34.9744C229.288 34.7585 229.581 34.6037 229.905 34.5099C230.229 34.4134 230.557 34.3651 230.889 34.3651C231.139 34.3651 231.399 34.3977 231.669 34.4631C231.942 34.5284 232.195 34.642 232.428 34.804C232.66 34.9631 232.849 35.1861 232.994 35.473C233.139 35.7571 233.212 36.1179 233.212 36.5554V41H232.453V39.9645H232.406C232.315 40.1577 232.18 40.3452 232.001 40.527C231.822 40.7088 231.598 40.858 231.328 40.9744C231.058 41.0909 230.741 41.1491 230.378 41.1491ZM230.48 40.4545C230.884 40.4545 231.233 40.3651 231.528 40.1861C231.824 40.0071 232.051 39.7699 232.21 39.4744C232.372 39.1761 232.453 38.848 232.453 38.4901V37.544C232.396 37.598 232.301 37.6463 232.168 37.6889C232.037 37.7315 231.885 37.7699 231.712 37.804C231.541 37.8352 231.371 37.8622 231.2 37.8849C231.03 37.9077 230.876 37.9276 230.74 37.9446C230.371 37.9901 230.055 38.0611 229.794 38.1577C229.533 38.2543 229.332 38.3878 229.193 38.5582C229.054 38.7259 228.984 38.9418 228.984 39.206C228.984 39.6037 229.126 39.9119 229.41 40.1307C229.695 40.3466 230.051 40.4545 230.48 40.4545ZM235.709 41V34.4545H236.447V35.4602H236.502C236.633 35.1307 236.86 34.8651 237.184 34.6634C237.511 34.4588 237.88 34.3565 238.292 34.3565C238.354 34.3565 238.424 34.358 238.501 34.3608C238.577 34.3636 238.641 34.3665 238.692 34.3693V35.1406C238.658 35.1349 238.599 35.1264 238.513 35.1151C238.428 35.1037 238.336 35.098 238.236 35.098C237.895 35.098 237.591 35.1705 237.324 35.3153C237.06 35.4574 236.851 35.6548 236.698 35.9077C236.545 36.1605 236.468 36.4489 236.468 36.7727V41H235.709ZM242.914 41.1364C242.303 41.1364 241.775 40.9943 241.329 40.7102C240.883 40.4233 240.537 40.027 240.293 39.5213C240.052 39.0128 239.931 38.4276 239.931 37.7656C239.931 37.1065 240.052 36.5213 240.293 36.0099C240.537 35.4957 240.874 35.0937 241.303 34.804C241.735 34.5114 242.233 34.3651 242.799 34.3651C243.154 34.3651 243.496 34.4304 243.826 34.5611C244.155 34.6889 244.451 34.8864 244.712 35.1534C244.976 35.4176 245.185 35.7514 245.339 36.1548C245.492 36.5554 245.569 37.0298 245.569 37.5781V37.9531H240.455V37.2841H244.793C244.793 36.8636 244.708 36.4858 244.537 36.1506C244.37 35.8125 244.135 35.5455 243.834 35.3494C243.536 35.1534 243.191 35.0554 242.799 35.0554C242.384 35.0554 242.019 35.1662 241.704 35.3878C241.388 35.6094 241.141 35.902 240.962 36.2656C240.786 36.6293 240.696 37.027 240.694 37.4588V37.8594C240.694 38.3793 240.783 38.8338 240.962 39.223C241.144 39.6094 241.401 39.9091 241.733 40.1222C242.066 40.3352 242.459 40.4418 242.914 40.4418C243.223 40.4418 243.495 40.3935 243.728 40.2969C243.964 40.2003 244.161 40.071 244.32 39.9091C244.482 39.7443 244.604 39.5639 244.687 39.3679L245.407 39.6023C245.307 39.8778 245.144 40.1321 244.917 40.3651C244.692 40.598 244.411 40.7855 244.073 40.9276C243.738 41.0668 243.351 41.1364 242.914 41.1364ZM253.403 41.1491C253.008 41.1491 252.648 41.0724 252.321 40.919C251.994 40.7628 251.734 40.5384 251.541 40.2457C251.348 39.9503 251.251 39.5923 251.251 39.1719C251.251 38.848 251.312 38.5753 251.435 38.3537C251.557 38.1321 251.73 37.9503 251.954 37.8082C252.179 37.6662 252.444 37.554 252.751 37.4716C253.058 37.3892 253.396 37.3253 253.766 37.2798C254.132 37.2344 254.442 37.1946 254.694 37.1605C254.95 37.1264 255.145 37.0724 255.278 36.9986C255.412 36.9247 255.479 36.8054 255.479 36.6406V36.4872C255.479 36.0412 255.345 35.6903 255.078 35.4347C254.814 35.1761 254.433 35.0469 253.936 35.0469C253.464 35.0469 253.079 35.1506 252.781 35.358C252.486 35.5653 252.278 35.8097 252.159 36.0909L251.439 35.831C251.587 35.473 251.791 35.1875 252.052 34.9744C252.314 34.7585 252.606 34.6037 252.93 34.5099C253.254 34.4134 253.582 34.3651 253.915 34.3651C254.165 34.3651 254.425 34.3977 254.694 34.4631C254.967 34.5284 255.22 34.642 255.453 34.804C255.686 34.9631 255.875 35.1861 256.02 35.473C256.165 35.7571 256.237 36.1179 256.237 36.5554V41H255.479V39.9645H255.432C255.341 40.1577 255.206 40.3452 255.027 40.527C254.848 40.7088 254.623 40.858 254.354 40.9744C254.084 41.0909 253.767 41.1491 253.403 41.1491ZM253.506 40.4545C253.909 40.4545 254.258 40.3651 254.554 40.1861C254.849 40.0071 255.077 39.7699 255.236 39.4744C255.398 39.1761 255.479 38.848 255.479 38.4901V37.544C255.422 37.598 255.327 37.6463 255.193 37.6889C255.062 37.7315 254.91 37.7699 254.737 37.804C254.567 37.8352 254.396 37.8622 254.226 37.8849C254.055 37.9077 253.902 37.9276 253.766 37.9446C253.396 37.9901 253.081 38.0611 252.819 38.1577C252.558 38.2543 252.358 38.3878 252.219 38.5582C252.079 38.7259 252.01 38.9418 252.01 39.206C252.01 39.6037 252.152 39.9119 252.436 40.1307C252.72 40.3466 253.077 40.4545 253.506 40.4545ZM263.133 35.8906L262.438 36.0866C262.37 35.8906 262.273 35.7131 262.148 35.554C262.023 35.3949 261.86 35.2685 261.658 35.1747C261.459 35.081 261.212 35.0341 260.917 35.0341C260.474 35.0341 260.11 35.1392 259.826 35.3494C259.542 35.5597 259.4 35.831 259.4 36.1634C259.4 36.4446 259.496 36.6733 259.689 36.8494C259.885 37.0227 260.187 37.1605 260.593 37.2628L261.581 37.5057C262.13 37.6392 262.54 37.8509 262.813 38.1406C263.089 38.4304 263.226 38.794 263.226 39.2315C263.226 39.6009 263.124 39.929 262.92 40.2159C262.715 40.5028 262.429 40.7287 262.063 40.8935C261.699 41.0554 261.277 41.1364 260.797 41.1364C260.158 41.1364 259.631 40.9929 259.216 40.706C258.802 40.4162 258.536 39.9986 258.42 39.4531L259.148 39.2741C259.242 39.6634 259.425 39.9574 259.698 40.1562C259.974 40.3551 260.336 40.4545 260.785 40.4545C261.287 40.4545 261.689 40.3423 261.991 40.1179C262.292 39.8906 262.442 39.6065 262.442 39.2656C262.442 39.0014 262.354 38.7798 262.178 38.6009C262.002 38.419 261.735 38.2855 261.377 38.2003L260.307 37.9446C259.739 37.8082 259.319 37.5923 259.046 37.2969C258.773 37.0014 258.637 36.6349 258.637 36.1974C258.637 35.8366 258.735 35.5199 258.931 35.2472C259.127 34.9716 259.397 34.7557 259.741 34.5994C260.084 34.4432 260.476 34.3651 260.917 34.3651C261.516 34.3651 261.995 34.5014 262.353 34.7741C262.714 35.044 262.974 35.4162 263.133 35.8906ZM269.765 35.8906L269.07 36.0866C269.002 35.8906 268.906 35.7131 268.781 35.554C268.656 35.3949 268.492 35.2685 268.29 35.1747C268.092 35.081 267.844 35.0341 267.549 35.0341C267.106 35.0341 266.742 35.1392 266.458 35.3494C266.174 35.5597 266.032 35.831 266.032 36.1634C266.032 36.4446 266.129 36.6733 266.322 36.8494C266.518 37.0227 266.819 37.1605 267.225 37.2628L268.214 37.5057C268.762 37.6392 269.173 37.8509 269.445 38.1406C269.721 38.4304 269.859 38.794 269.859 39.2315C269.859 39.6009 269.756 39.929 269.552 40.2159C269.347 40.5028 269.062 40.7287 268.695 40.8935C268.332 41.0554 267.91 41.1364 267.43 41.1364C266.79 41.1364 266.264 40.9929 265.849 40.706C265.434 40.4162 265.168 39.9986 265.052 39.4531L265.781 39.2741C265.874 39.6634 266.058 39.9574 266.33 40.1562C266.606 40.3551 266.968 40.4545 267.417 40.4545C267.92 40.4545 268.322 40.3423 268.623 40.1179C268.924 39.8906 269.075 39.6065 269.075 39.2656C269.075 39.0014 268.987 38.7798 268.81 38.6009C268.634 38.419 268.367 38.2855 268.009 38.2003L266.94 37.9446C266.371 37.8082 265.951 37.5923 265.678 37.2969C265.406 37.0014 265.269 36.6349 265.269 36.1974C265.269 35.8366 265.367 35.5199 265.563 35.2472C265.759 34.9716 266.029 34.7557 266.373 34.5994C266.717 34.4432 267.109 34.3651 267.549 34.3651C268.148 34.3651 268.627 34.5014 268.985 34.7741C269.346 35.044 269.606 35.4162 269.765 35.8906ZM274.544 41.1364C273.978 41.1364 273.478 40.9929 273.044 40.706C272.612 40.419 272.274 40.0227 272.029 39.517C271.785 39.0085 271.663 38.4219 271.663 37.7571C271.663 37.0866 271.785 36.4972 272.029 35.9886C272.274 35.4773 272.612 35.0795 273.044 34.7955C273.478 34.5085 273.978 34.3651 274.544 34.3651C275.109 34.3651 275.607 34.5085 276.039 34.7955C276.471 35.0824 276.809 35.4801 277.054 35.9886C277.301 36.4972 277.424 37.0866 277.424 37.7571C277.424 38.4219 277.302 39.0085 277.058 39.517C276.813 40.0227 276.474 40.419 276.039 40.706C275.607 40.9929 275.109 41.1364 274.544 41.1364ZM274.544 40.4418C274.998 40.4418 275.383 40.3196 275.698 40.0753C276.014 39.831 276.252 39.5057 276.414 39.0994C276.579 38.6932 276.661 38.2457 276.661 37.7571C276.661 37.2685 276.579 36.8196 276.414 36.4105C276.252 36.0014 276.014 35.6733 275.698 35.4261C275.383 35.179 274.998 35.0554 274.544 35.0554C274.092 35.0554 273.707 35.179 273.389 35.4261C273.073 35.6733 272.833 36.0014 272.669 36.4105C272.507 36.8196 272.426 37.2685 272.426 37.7571C272.426 38.2457 272.507 38.6932 272.669 39.0994C272.833 39.5057 273.073 39.831 273.389 40.0753C273.704 40.3196 274.089 40.4418 274.544 40.4418ZM282.126 41.1364C281.541 41.1364 281.031 40.9901 280.596 40.6974C280.165 40.4048 279.829 40.0043 279.591 39.4957C279.352 38.9872 279.233 38.4077 279.233 37.7571C279.233 37.1009 279.353 36.517 279.595 36.0057C279.839 35.4943 280.177 35.0937 280.609 34.804C281.041 34.5114 281.542 34.3651 282.113 34.3651C282.551 34.3651 282.947 34.4503 283.302 34.6207C283.657 34.7884 283.95 35.0256 284.18 35.3324C284.413 35.6364 284.559 35.9915 284.619 36.3977H283.852C283.773 36.0284 283.581 35.7131 283.277 35.4517C282.976 35.1875 282.592 35.0554 282.126 35.0554C281.709 35.0554 281.339 35.169 281.018 35.3963C280.697 35.6207 280.446 35.9347 280.264 36.3381C280.085 36.7386 279.996 37.2031 279.996 37.7315C279.996 38.2628 280.084 38.733 280.26 39.142C280.436 39.5483 280.683 39.8665 281.001 40.0966C281.322 40.3267 281.697 40.4418 282.126 40.4418C282.416 40.4418 282.68 40.3878 282.919 40.2798C283.16 40.169 283.362 40.0128 283.524 39.8111C283.689 39.6094 283.799 39.3693 283.856 39.0909H284.623C284.567 39.4858 284.426 39.8381 284.201 40.1477C283.98 40.4545 283.692 40.696 283.336 40.8722C282.984 41.0483 282.581 41.1364 282.126 41.1364ZM287.334 41.0639C287.167 41.0639 287.022 41.0043 286.9 40.8849C286.78 40.7628 286.721 40.6179 286.721 40.4503C286.721 40.2798 286.78 40.1349 286.9 40.0156C287.022 39.8963 287.167 39.8366 287.334 39.8366C287.505 39.8366 287.65 39.8963 287.769 40.0156C287.888 40.1349 287.948 40.2798 287.948 40.4503C287.948 40.5611 287.919 40.6634 287.863 40.7571C287.809 40.8509 287.735 40.9261 287.641 40.983C287.55 41.0369 287.448 41.0639 287.334 41.0639Z" fill="#323232"/>
<defs>
<radialGradient id="paint0_radial_578_415" cx="0" cy="0" r="1" gradientUnits="userSpaceOnUse" gradientTransform="translate(-34.3707 23.2594) scale(70.7715 71.3047)">
<stop stop-color="#F3ED5E"/>
<stop offset="1" stop-color="#68B82E"/>
</radialGradient>
<radialGradient id="paint1_radial_578_415" cx="0" cy="0" r="1" gradientUnits="userSpaceOnUse" gradientTransform="translate(76.3654 -0.326084) scale(64.5761 65.0626)">
<stop stop-color="#F3ED5E"/>
<stop offset="1" stop-color="#68B82E"/>
</radialGradient>
<radialGradient id="paint2_radial_578_415" cx="0" cy="0" r="1" gradientUnits="userSpaceOnUse" gradientTransform="translate(35.0238 6.13109) scale(8.28318 8.34558)">
<stop stop-color="#F3ED5E"/>
<stop offset="1" stop-color="#E95513"/>
</radialGradient>
</defs>
</svg>
