<svg width="270" height="22" viewBox="0 0 270 22" fill="none" xmlns="http://www.w3.org/2000/svg">
<path d="M260.148 9.21946C262.112 9.17404 265.26 9.06048 268.194 8.92422L268.161 9.70773C265.317 9.85534 262.259 9.9916 260.261 10.0597L260.148 9.21946ZM260.047 5.71073H269.402V6.51694H260.047V5.71073ZM261.976 3.5419H267.371V4.33676H261.976V3.5419ZM263.139 6.22171L264.087 6.49423C263.568 7.58432 262.913 8.91287 262.36 9.7645L261.604 9.51469C262.134 8.62899 262.8 7.22096 263.139 6.22171ZM265.825 7.42535L266.547 7.03928C267.585 7.93633 268.691 9.16268 269.221 10.0257L268.454 10.4912C267.946 9.6396 266.829 8.33376 265.825 7.42535ZM264.651 0.850741C263.726 2.23606 261.875 3.79171 259.956 4.7569C259.855 4.55251 259.641 4.24592 259.46 4.06424C261.401 3.13312 263.286 1.48663 264.166 0.0331726H265.035C266.231 1.71373 268.206 3.20125 270 3.93933C269.797 4.14372 269.594 4.45031 269.447 4.70012C267.687 3.84849 265.7 2.3269 264.651 0.850741Z" fill="#323232"/>
<path d="M254.777 1.31719H255.601V4.15597H254.777V1.31719ZM253.423 5.29148H254.167V9.67456C254.167 10.0606 254.088 10.2537 253.818 10.3559C253.535 10.4581 253.095 10.4694 252.441 10.4694C252.407 10.2877 252.294 10.0152 252.204 9.82217C252.678 9.83353 253.118 9.83353 253.253 9.83353C253.389 9.82217 253.423 9.78811 253.423 9.6632V5.29148ZM256.706 0L257.451 0.227102C257.192 0.658596 256.898 1.05603 256.661 1.35126L256.075 1.13551C256.289 0.817568 256.571 0.317943 256.706 0ZM253.061 0.249812L253.671 0.011355C253.953 0.329298 254.269 0.794858 254.393 1.1128L253.75 1.38532C253.626 1.06738 253.344 0.601821 253.061 0.249812ZM256.684 5.18929L257.18 4.80321C257.643 5.09845 258.174 5.55265 258.422 5.88195L257.903 6.31344C257.666 5.96143 257.135 5.49587 256.684 5.18929ZM251.786 8.17568C252.712 8.06213 254.055 7.8918 255.386 7.69877L255.409 8.33465C254.156 8.52769 252.881 8.72073 251.888 8.86834L251.786 8.17568ZM254.799 4.73508L255.307 5.25742C254.461 5.52994 253.219 5.72298 252.193 5.82517C252.159 5.67756 252.068 5.4391 251.989 5.28013C252.983 5.16658 254.156 4.97354 254.799 4.73508ZM252.238 1.13551H258.264V1.76004H252.238V1.13551ZM252.61 2.49812H257.959V3.08859H252.61V2.49812ZM251.831 3.88345H258.501V4.53069H251.831V3.88345ZM251.82 6.4497H258.523V7.1083H251.82V6.4497ZM255.522 4.80321H256.255C256.3 8.15297 256.989 9.86759 257.779 9.85624C257.97 9.85624 258.072 9.60643 258.128 8.86834C258.275 9.01596 258.501 9.11816 258.67 9.18629C258.546 10.2196 258.275 10.5489 257.711 10.5489C256.323 10.5489 255.634 8.38007 255.522 4.80321ZM257.406 7.35811L258.027 7.65335C257.372 8.81157 256.154 9.78811 254.935 10.3445C254.844 10.2082 254.653 10.0039 254.506 9.87895C255.68 9.36797 256.831 8.45956 257.406 7.35811ZM248.66 3.45195H251.561V4.13326H248.66V3.45195ZM248.728 0.420139H251.527V1.10145H248.728V0.420139ZM248.66 4.97354H251.561V5.65485H248.66V4.97354ZM248.198 1.90766H251.843V2.61168H248.198V1.90766ZM249.055 6.50648H251.549V9.81082H249.055V9.1068H250.838V7.2105H249.055V6.50648ZM248.638 6.50648H249.338V10.3445H248.638V6.50648Z" fill="#323232"/>
<path d="M243.661 5.98258H246.697V6.66389H243.661V5.98258ZM240.953 1.25886H246.121V1.96287H240.953V1.25886ZM239.904 5.98258H242.894V6.66389H239.904V5.98258ZM236.924 3.0189H240.468V3.8024H236.924V3.0189ZM238.324 0.0211511H239.147V10.4565H238.324V0.0211511ZM242.646 5.98258H243.357C243.357 5.98258 243.357 6.22104 243.345 6.32324C243.255 8.93491 243.165 9.84332 242.928 10.1499C242.781 10.3429 242.612 10.4224 242.375 10.4338C242.172 10.4679 241.856 10.4679 241.529 10.4451C241.517 10.2408 241.461 9.94552 241.348 9.76384C241.664 9.7979 241.923 9.7979 242.059 9.7979C242.183 9.7979 242.251 9.77519 242.318 9.67299C242.476 9.47996 242.567 8.59426 242.646 6.1302V5.98258ZM246.46 5.98258H247.182C247.182 5.98258 247.182 6.22104 247.171 6.32324C247.092 8.92356 247.013 9.84332 246.776 10.1499C246.618 10.3429 246.46 10.4111 246.212 10.4338C245.997 10.4679 245.647 10.4679 245.286 10.4451C245.264 10.2294 245.196 9.93416 245.095 9.74113C245.444 9.77519 245.738 9.77519 245.873 9.77519C246.009 9.77519 246.076 9.76383 246.155 9.66164C246.302 9.4686 246.381 8.59426 246.46 6.1302V5.98258ZM245.952 1.25886H246.742C246.742 1.25886 246.72 1.48596 246.708 1.59951C246.562 3.28007 246.415 3.96137 246.144 4.2339C245.963 4.42693 245.772 4.49506 245.478 4.51777C245.23 4.52913 244.767 4.54049 244.293 4.50642C244.271 4.27932 244.192 3.97273 244.068 3.77969C244.53 3.82511 244.982 3.82511 245.162 3.82511C245.331 3.82511 245.422 3.81376 245.501 3.73427C245.693 3.55259 245.828 2.92806 245.952 1.37241V1.25886ZM243.278 0.00979614H244.079C243.921 2.31488 243.3 3.87053 240.942 4.75623C240.863 4.57455 240.66 4.29067 240.513 4.15441C242.691 3.39362 243.154 2.01965 243.278 0.00979614ZM241.088 4.81301H241.833C241.766 7.25436 241.461 9.27557 240.061 10.4792C239.96 10.3202 239.746 10.0704 239.588 9.95687C240.84 8.88949 241.032 7.02725 241.088 4.81301ZM244.801 4.7903H245.557C245.489 7.29978 245.174 9.26421 243.718 10.4565C243.616 10.2862 243.391 10.0364 243.221 9.91145C244.542 8.87814 244.756 7.06132 244.801 4.7903Z" fill="#323232"/>
<path d="M235.705 1.88453C235.615 1.98672 235.479 2.15705 235.4 2.28196C234.949 3.05411 233.877 4.51891 232.59 5.41597L231.834 4.81415C232.884 4.21233 233.945 2.98597 234.306 2.28196C233.516 2.28196 228.415 2.28196 227.873 2.28196C227.456 2.28196 227.038 2.30467 226.598 2.33873V1.31677C226.993 1.37355 227.456 1.41897 227.873 1.41897C228.415 1.41897 233.685 1.41897 234.362 1.41897C234.576 1.41897 234.983 1.3849 235.141 1.33948L235.705 1.88453ZM231.191 3.37205C231.191 6.44928 230.92 8.52727 228.043 9.98073L227.219 9.29942C227.523 9.19722 227.918 9.00419 228.234 8.78844C229.972 7.7097 230.221 6.09728 230.221 4.20097C230.221 3.92845 230.221 3.67864 230.175 3.37205H231.191Z" fill="#323232"/>
<path d="M216.205 3.69196C216.454 3.71467 216.803 3.73738 216.984 3.73738H222.186C222.468 3.73738 222.75 3.71467 222.976 3.69196V4.60036C222.739 4.57765 222.434 4.5663 222.186 4.5663H216.995C216.815 4.5663 216.442 4.57765 216.205 4.60036V3.69196ZM219.072 9.21054V4.20294H219.974V9.21054H219.072ZM215.664 8.68821C215.923 8.72227 216.217 8.73363 216.465 8.73363H222.705C222.976 8.73363 223.236 8.71092 223.461 8.68821V9.63068C223.236 9.60797 222.886 9.59661 222.705 9.59661H216.465C216.217 9.59661 215.934 9.60797 215.664 9.63068V8.68821Z" fill="#323232"/>
<path d="M212.346 2.00957C212.267 2.16854 212.221 2.35022 212.176 2.57732C211.928 3.76961 211.386 5.59778 210.484 6.76736C209.457 8.09591 208.114 9.15194 206.049 9.79918L205.281 8.94754C207.471 8.4025 208.734 7.43731 209.682 6.22231C210.484 5.189 211.003 3.61064 211.161 2.52055C210.506 2.52055 206.037 2.52055 205.383 2.52055C204.931 2.52055 204.548 2.54326 204.266 2.55461V1.54401C204.57 1.58943 205.022 1.62349 205.394 1.62349C206.037 1.62349 210.54 1.62349 211.048 1.62349C211.217 1.62349 211.443 1.61214 211.657 1.56672L212.346 2.00957Z" fill="#323232"/>
<path d="M197.247 9.31398C197.292 9.14365 197.326 8.9052 197.326 8.67809C197.326 8.15576 197.326 2.59175 197.326 1.87638C197.326 1.44489 197.27 1.12694 197.27 1.0361H198.308C198.297 1.12694 198.251 1.45624 198.251 1.88774C198.251 2.59175 198.251 8.08763 198.251 8.42828C199.301 7.95137 200.689 6.91805 201.547 5.63492L202.088 6.41843C201.106 7.74698 199.549 8.9052 198.24 9.56379C198.048 9.65463 197.935 9.75683 197.845 9.81361L197.247 9.31398ZM192.079 9.26856C193.038 8.58725 193.704 7.57665 194.042 6.4752C194.381 5.43053 194.381 3.17086 194.381 1.89909C194.381 1.56979 194.358 1.31998 194.302 1.08152H195.34C195.329 1.20643 195.284 1.55844 195.284 1.88774C195.284 3.14815 195.25 5.5895 194.945 6.72501C194.606 7.94001 193.884 9.04146 192.936 9.83632L192.079 9.26856Z" fill="#323232"/>
<path d="M182.351 3.69196C182.6 3.71467 182.949 3.73738 183.13 3.73738H188.332C188.614 3.73738 188.896 3.71467 189.122 3.69196V4.60036C188.885 4.57765 188.58 4.5663 188.332 4.5663H183.141C182.961 4.5663 182.588 4.57765 182.351 4.60036V3.69196ZM185.218 9.21054V4.20294H186.12V9.21054H185.218ZM181.81 8.68821C182.069 8.72227 182.363 8.73363 182.611 8.73363H188.851C189.122 8.73363 189.382 8.71092 189.607 8.68821V9.63068C189.382 9.60797 189.032 9.59661 188.851 9.59661H182.611C182.363 9.59661 182.08 9.60797 181.81 9.63068V8.68821Z" fill="#323232"/>
<path d="M174.869 0.463348C174.824 0.815356 174.813 1.07652 174.813 1.31498C174.813 1.57615 174.813 2.42778 174.813 2.82521H173.854C173.854 2.38236 173.854 1.57615 173.854 1.31498C173.854 1.07652 173.842 0.815356 173.797 0.463348H174.869ZM178.717 2.66624C178.661 2.82521 178.593 3.1318 178.559 3.34755C178.401 4.25595 178.074 5.67534 177.442 6.75408C176.607 8.2416 175.05 9.39982 172.985 9.96757L172.251 9.1273C172.623 9.05916 173.052 8.94561 173.413 8.80935C174.553 8.43463 175.783 7.59436 176.483 6.51562C177.092 5.55044 177.442 4.17647 177.544 3.21128H171.247C171.247 3.67684 171.247 4.89184 171.247 5.24385C171.247 5.43689 171.258 5.74347 171.281 5.9138H170.299C170.333 5.72076 170.344 5.41417 170.344 5.18707C170.344 4.82371 170.344 3.586 170.344 3.18857C170.344 2.95012 170.344 2.56404 170.299 2.32559C170.626 2.3483 170.965 2.37101 171.36 2.37101H177.341C177.758 2.37101 177.961 2.32559 178.108 2.28017L178.717 2.66624Z" fill="#323232"/>
<path d="M163.133 4.02957C163.787 4.02957 164.329 4.57462 164.329 5.23321C164.329 5.90317 163.787 6.44821 163.133 6.44821C162.467 6.44821 161.925 5.90317 161.925 5.23321C161.925 4.57462 162.467 4.02957 163.133 4.02957Z" fill="#323232"/>
<path d="M148.767 1.23608C149.557 1.76977 151.013 2.95071 151.634 3.57524L150.934 4.30196C150.359 3.7115 148.959 2.48515 148.113 1.92875L148.767 1.23608ZM147.797 8.84401C149.76 8.54877 151.227 7.85611 152.299 7.18616C154.049 6.08472 155.414 4.40416 156.069 2.99613L156.61 3.97267C155.843 5.3807 154.534 6.92499 152.83 8.00373C151.69 8.7191 150.268 9.42312 148.384 9.77512L147.797 8.84401Z" fill="#323232"/>
<path d="M143.395 0.578838C143.678 0.987622 144.073 1.64622 144.298 2.10042L143.689 2.37295C143.463 1.91874 143.102 1.2715 142.797 0.840005L143.395 0.578838ZM144.727 0.260895C145.032 0.681034 145.449 1.35098 145.664 1.77112L145.054 2.04365C144.806 1.54402 144.456 0.942201 144.14 0.522062L144.727 0.260895ZM141.026 0.80594C141.003 0.964911 140.958 1.3737 140.958 1.61215C140.958 2.21397 140.958 3.1678 140.958 3.7242C140.958 4.64397 140.958 8.32302 140.958 9.14059C140.958 9.73106 140.676 10.0376 139.987 10.0376C139.513 10.0376 138.848 10.0149 138.385 9.95816L138.306 9.06111C138.803 9.15195 139.31 9.18601 139.615 9.18601C139.92 9.18601 140.044 9.06111 140.044 8.75452C140.055 8.14134 140.055 4.25789 140.055 3.7242C140.055 3.33813 140.055 2.21397 140.055 1.61215C140.055 1.36234 140.01 0.976266 139.976 0.80594H141.026ZM135.959 2.7136C136.275 2.75902 136.557 2.78173 136.907 2.78173C137.573 2.78173 143.271 2.78173 143.948 2.78173C144.208 2.78173 144.58 2.75902 144.862 2.72495V3.66743C144.569 3.64472 144.231 3.63336 143.96 3.63336C143.283 3.63336 137.606 3.63336 136.918 3.63336C136.568 3.63336 136.252 3.64472 135.959 3.67878V2.7136ZM138.554 5.39341C138.069 6.35859 137.02 7.81204 136.376 8.50471L135.598 7.97102C136.354 7.27835 137.313 5.9271 137.753 5.00733L138.554 5.39341ZM143.26 5.00733C143.869 5.73406 144.761 7.15345 145.212 7.98237L144.389 8.44793C143.937 7.55088 143.091 6.14284 142.493 5.42747L143.26 5.00733Z" fill="#323232"/>
<path d="M124.776 4.6315C125.126 4.66557 125.713 4.69963 126.356 4.69963C127.18 4.69963 131.705 4.69963 132.54 4.69963C133.104 4.69963 133.499 4.65421 133.759 4.6315V5.7443C133.522 5.73295 133.048 5.69888 132.551 5.69888C131.693 5.69888 127.191 5.69888 126.356 5.69888C125.735 5.69888 125.137 5.72159 124.776 5.7443V4.6315Z" fill="#323232"/>
<path d="M118.073 0.621765C118.05 0.882933 118.028 1.26901 118.016 1.54153C117.87 6.17442 116.628 8.29782 114.405 9.85347L113.582 9.18352C113.943 8.99049 114.394 8.67254 114.733 8.3546C116.143 7.07147 117.069 5.15246 117.091 1.56424C117.091 1.30307 117.069 0.882933 117.023 0.621765H118.073ZM122 2.98363C121.966 3.17667 121.944 3.38106 121.932 3.52867C121.898 4.63012 121.752 7.92311 121.244 9.0132C121.018 9.50147 120.657 9.70586 120.036 9.70586C119.472 9.70586 118.818 9.67179 118.231 9.62637L118.118 8.6839C118.727 8.76338 119.314 8.82016 119.799 8.82016C120.115 8.82016 120.33 8.71796 120.454 8.44544C120.883 7.5711 121.03 4.77774 121.03 3.56274H115.082C114.631 3.56274 114.18 3.5741 113.773 3.60816V2.65433C114.168 2.6884 114.631 2.71111 115.071 2.71111H120.646C120.951 2.71111 121.165 2.6884 121.357 2.65433L122 2.98363Z" fill="#323232"/>
<path d="M102.714 1.77072C103.154 1.79343 103.447 1.79343 103.718 1.79343C104.316 1.79343 109.225 1.79343 109.778 1.79343C110.015 1.79343 110.421 1.79343 110.771 1.78208C110.749 2.0546 110.749 2.37254 110.749 2.65642C110.749 3.19011 110.749 7.823 110.749 8.25449C110.749 8.61786 110.76 9.50355 110.771 9.62846H109.789C109.801 9.50355 109.812 8.85631 109.812 8.3794C109.812 7.95926 109.812 2.69049 109.812 2.69049H103.651C103.651 2.69049 103.651 7.91384 103.651 8.3794C103.651 8.75412 103.662 9.48084 103.662 9.62846H102.703C102.703 9.48084 102.725 8.65192 102.725 8.25449C102.725 7.78893 102.725 3.09927 102.725 2.65642C102.725 2.39525 102.725 2.0546 102.714 1.77072ZM110.184 8.09552V8.98122H103.199V8.09552H110.184Z" fill="#323232"/>
<path d="M98.3807 0.52351C98.6628 0.920939 99.0691 1.6136 99.2948 2.07916L98.6854 2.35168C98.471 1.88612 98.0873 1.20482 97.7826 0.773322L98.3807 0.52351ZM99.6107 0.0693054C99.9154 0.47809 100.344 1.19346 100.559 1.6136L99.9606 1.88612C99.7123 1.3865 99.3399 0.750612 99.0239 0.319118L99.6107 0.0693054ZM93.0768 8.29041C93.0768 7.25709 93.0768 3.23738 93.0768 2.02238C93.0768 1.68173 93.0543 1.30701 92.9978 0.977714H94.0699C94.0248 1.30701 93.9909 1.69309 93.9909 2.02238C93.9909 3.22603 93.9909 6.92779 93.9909 8.05195C93.9909 8.83545 94.2843 9.08526 95.6272 9.08526C96.9362 9.08526 98.0196 8.97171 99.1481 8.75597L99.1142 9.73251C98.0986 9.88012 96.9814 9.97096 95.5708 9.97096C93.4605 9.97096 93.0768 9.41456 93.0768 8.29041ZM99.6333 3.22603C99.543 3.33958 99.4302 3.53261 99.3512 3.68023C98.8321 4.62271 97.9406 6.04209 97.0378 6.98457L96.2479 6.50765C97.0942 5.73551 97.9293 4.48644 98.2678 3.80514C97.918 3.88462 91.8242 5.09962 90.4813 5.40621L90.3008 4.45238C91.7339 4.2707 97.5118 3.10112 98.3694 2.90808C98.6064 2.85131 98.8208 2.78318 98.9675 2.70369L99.6333 3.22603Z" fill="#323232"/>
<path d="M79.2191 2.40417H89.0708V3.26715H79.2191V2.40417ZM81.4761 7.46854H86.7348V8.33153H81.4761V7.46854ZM83.6766 0.0195923H84.5681V10.4549H83.6766V0.0195923ZM83.4171 2.68804L84.1732 2.94921C83.1688 5.35649 81.3971 7.52532 79.4448 8.67219C79.3094 8.45644 79.0273 8.13849 78.8354 7.96817C80.72 6.98027 82.5143 4.86822 83.4171 2.68804ZM84.8502 2.72211C85.7417 4.87958 87.5135 6.94621 89.4657 7.88868C89.2513 8.07036 88.9579 8.41102 88.8225 8.64947C86.8251 7.53667 85.0872 5.36785 84.0942 2.98328L84.8502 2.72211Z" fill="#323232"/>
<path d="M69.1982 0.782135H76.5898V10.2864H75.6983V1.64512H70.0672V10.3318H69.1982V0.782135ZM69.7738 4.72236H76.0707V5.56264H69.7738V4.72236ZM69.7625 8.74207H76.0933V9.5937H69.7625V8.74207Z" fill="#323232"/>
<path d="M60.983 0.365326H61.9196C61.8294 2.14808 61.6601 7.81428 56.9882 10.3692C56.8415 10.1534 56.5594 9.89226 56.2998 9.69923C60.904 7.33736 60.904 1.87555 60.983 0.365326ZM61.8858 0.592428C61.9196 1.47813 62.2469 7.50769 66.8962 9.65381C66.648 9.84684 66.3884 10.1307 66.253 10.3692C61.4682 8.06409 61.1523 1.71658 61.0733 0.671913L61.8858 0.592428Z" fill="#323232"/>
<path d="M48.1069 4.78874H55.363V5.59495H48.1069V4.78874ZM48.6824 1.87047H54.8326V2.68804H48.6824V1.87047ZM51.2666 0.0195923H52.1356V5.36785H51.2666V0.0195923ZM48.1182 9.06961C49.6529 9.00148 52.113 8.86522 54.4489 8.72896V9.50111C52.2033 9.67143 49.8448 9.83041 48.2423 9.9326L48.1182 9.06961ZM52.666 7.12789L53.3882 6.75317C54.2458 7.76378 55.1825 9.11503 55.5549 10.0348L54.7649 10.4776C54.4151 9.58059 53.5123 8.16121 52.666 7.12789ZM50.5106 5.32243L51.4246 5.5836C50.9281 6.90079 50.251 8.52457 49.6868 9.55788L48.942 9.29672C49.4949 8.24069 50.1607 6.53742 50.5106 5.32243ZM45.6694 0.723609L46.1433 0.0877227C46.9107 0.371601 47.8812 0.85987 48.3664 1.2573L47.8812 1.97267C47.4072 1.56389 46.4593 1.0302 45.6694 0.723609ZM45.0713 3.85762L45.5114 3.19902C46.2788 3.44884 47.2718 3.89168 47.7796 4.25505L47.317 4.97042C46.8317 4.60706 45.8612 4.13014 45.0713 3.85762ZM45.4663 9.76228C46.0418 8.88793 46.8881 7.38906 47.5088 6.10593L48.1407 6.63962C47.5765 7.84326 46.8317 9.26265 46.1998 10.3187L45.4663 9.76228Z" fill="#323232"/>
<path d="M35.7164 3.2337H42.397V3.97178H35.7164V3.2337ZM40.061 1.78025H40.8622V7.68491C40.8622 8.15047 40.7494 8.37757 40.4108 8.49112C40.0949 8.61602 39.5419 8.61602 38.6617 8.61602C38.6279 8.41163 38.515 8.09369 38.4134 7.87794C39.0567 7.90065 39.6548 7.90065 39.8353 7.8893C40.0046 7.87794 40.061 7.83252 40.061 7.67355V1.78025ZM36.5627 4.86884L37.1834 4.53954C37.7702 5.15272 38.3457 6.0157 38.5714 6.60617L37.9169 6.96953C37.7025 6.37907 37.1383 5.49337 36.5627 4.86884ZM34.2832 0.542542H43.7399V10.4556H42.8709V1.36011H35.1296V10.4556H34.2832V0.542542ZM34.7797 9.127H43.2208V9.94457H34.7797V9.127Z" fill="#323232"/>
<path d="M26.6435 9.29672H33.0194V10.137H26.6435V9.29672ZM27.0836 3.73271H32.7824V4.55028H27.0836V3.73271ZM29.5098 0.0990784H30.3675V9.7055H29.5098V0.0990784ZM22.6938 2.143H26.4403V2.9265H22.6938V2.143ZM24.4768 5.54953L25.3119 4.53893V10.4663H24.4768V5.54953ZM24.4768 0.0195923H25.3119V2.52907H24.4768V0.0195923ZM25.2442 4.76603C25.6278 5.03855 26.9369 6.19677 27.2641 6.48065L26.745 7.17331C26.3275 6.68504 25.2216 5.60631 24.7589 5.19752L25.2442 4.76603ZM26.1244 2.143H26.2936L26.4516 2.10893L26.9369 2.42688C26.0792 4.51621 24.3527 6.40116 22.7389 7.44583C22.6487 7.23009 22.4455 6.83266 22.2988 6.68504C23.8336 5.77663 25.4473 4.05066 26.1244 2.32468V2.143Z" fill="#323232"/>
<path d="M17.2323 0.462442H19.7488V1.21188H17.2323V0.462442ZM16.2618 4.98177H20.4146V5.74257H16.2618V4.98177ZM19.3764 0.462442H20.1551V3.08547C20.1551 3.30122 20.1551 3.42612 20.2002 3.46019C20.2341 3.50561 20.3018 3.51697 20.3808 3.51697C20.4598 3.51697 20.5952 3.51697 20.6967 3.51697C20.787 3.51697 20.8886 3.50561 20.9337 3.47155C20.9789 3.43748 21.024 3.36935 21.0466 3.23309C21.0691 3.07412 21.0804 2.74482 21.0917 2.30197C21.2497 2.43823 21.5205 2.57449 21.7236 2.64262C21.7124 3.06276 21.6785 3.53968 21.6108 3.71C21.5431 3.89168 21.4302 4.01659 21.2835 4.08472C21.1594 4.15285 20.945 4.18692 20.7644 4.18692C20.629 4.18692 20.3243 4.18692 20.2002 4.18692C19.9858 4.18692 19.7375 4.13014 19.5908 3.98253C19.4328 3.84626 19.3764 3.66458 19.3764 3.04005V0.462442ZM20.2679 4.98177H20.4146L20.5613 4.94771L21.103 5.14075C20.3582 8.0363 18.4398 9.69414 16.1715 10.4776C16.0813 10.2619 15.8668 9.94396 15.7089 9.76228C17.7965 9.13775 19.636 7.55938 20.2679 5.11804V4.98177ZM17.379 5.71986C18.0899 7.67294 19.6134 9.18317 21.7914 9.75092C21.6108 9.92125 21.3738 10.2505 21.261 10.4549C19.0153 9.77363 17.4806 8.12714 16.6793 5.90154L17.379 5.71986ZM16.8712 0.462442H17.6273V1.96132C17.6273 2.83566 17.4467 3.94846 16.5214 4.67519C16.3972 4.52757 16.0925 4.2664 15.9233 4.17556C16.7471 3.52832 16.8712 2.66533 16.8712 1.93861V0.462442ZM13.3842 6.01509H13.9371V8.6949H13.3842V6.01509ZM12.3573 1.5866H14.9641V2.27926H12.3573V1.5866ZM14.7384 1.5866H15.4493V9.59195C15.4493 9.98938 15.3703 10.2051 15.1108 10.33C14.8399 10.4436 14.445 10.4663 13.7904 10.4663C13.7566 10.2733 13.655 9.95531 13.5535 9.76228C14.0161 9.77363 14.4337 9.77363 14.5578 9.77363C14.6932 9.77363 14.7384 9.72821 14.7384 9.59195V1.5866ZM12.0074 1.5866H12.7071V5.7085C12.7071 7.17331 12.583 9.17181 11.7705 10.4549C11.6463 10.33 11.3416 10.1483 11.1724 10.0689C11.9397 8.83116 12.0074 7.08247 12.0074 5.7085V1.5866ZM11.1836 5.19752C12.3798 5.09533 14.1967 4.90229 15.9684 4.70925L15.9797 5.40191C14.2757 5.5836 12.5153 5.78799 11.2739 5.92425L11.1836 5.19752ZM13.1133 2.94921L13.6437 2.73346C13.9484 3.19902 14.208 3.83491 14.2983 4.2664L13.7227 4.50486C13.6437 4.07337 13.3955 3.43748 13.1133 2.94921ZM13.418 0.0195923L14.3208 0.201274C14.0951 0.803095 13.8356 1.4844 13.6437 1.9159L12.9441 1.74557C13.1133 1.2573 13.3165 0.519217 13.418 0.0195923Z" fill="#323232"/>
<path d="M0 4.65823H10.3256V5.58935H0V4.65823Z" fill="#323232"/>
<path d="M243.72 18.2839V20.6065H243.292V16.8903H243.708V17.4734H243.747C243.833 17.283 243.968 17.1306 244.151 17.0161C244.335 16.9 244.563 16.8419 244.834 16.8419C245.082 16.8419 245.3 16.8943 245.488 16.9992C245.677 17.1024 245.824 17.2548 245.928 17.4564C246.034 17.658 246.086 17.9056 246.086 18.1992V20.6065H245.658V18.2258C245.658 17.9209 245.573 17.6798 245.404 17.5024C245.235 17.325 245.009 17.2363 244.726 17.2363C244.532 17.2363 244.359 17.2782 244.209 17.3621C244.058 17.4459 243.938 17.5669 243.85 17.725C243.764 17.8814 243.72 18.0677 243.72 18.2839Z" fill="#323232"/>
<path d="M240.457 20.6839C240.138 20.6839 239.856 20.6024 239.611 20.4395C239.367 20.2766 239.177 20.0516 239.039 19.7645C238.901 19.4758 238.832 19.1427 238.832 18.7653C238.832 18.3846 238.901 18.0499 239.039 17.7612C239.177 17.4709 239.367 17.2451 239.611 17.0838C239.856 16.9209 240.138 16.8394 240.457 16.8394C240.776 16.8394 241.058 16.9209 241.301 17.0838C241.545 17.2467 241.736 17.4725 241.874 17.7612C242.013 18.0499 242.083 18.3846 242.083 18.7653C242.083 19.1427 242.014 19.4758 241.876 19.7645C241.738 20.0516 241.547 20.2766 241.301 20.4395C241.058 20.6024 240.776 20.6839 240.457 20.6839ZM240.457 20.2895C240.714 20.2895 240.931 20.2201 241.109 20.0814C241.287 19.9427 241.422 19.758 241.513 19.5274C241.606 19.2967 241.652 19.0427 241.652 18.7653C241.652 18.4878 241.606 18.233 241.513 18.0007C241.422 17.7685 241.287 17.5822 241.109 17.4419C240.931 17.3015 240.714 17.2314 240.457 17.2314C240.203 17.2314 239.985 17.3015 239.806 17.4419C239.628 17.5822 239.492 17.7685 239.399 18.0007C239.308 18.233 239.262 18.4878 239.262 18.7653C239.262 19.0427 239.308 19.2967 239.399 19.5274C239.492 19.758 239.628 19.9427 239.806 20.0814C239.984 20.2201 240.201 20.2895 240.457 20.2895Z" fill="#323232"/>
<path d="M237.188 20.6108V16.8946H237.619V20.6108H237.188ZM237.407 16.2558C237.319 16.2558 237.244 16.226 237.181 16.1663C237.119 16.105 237.087 16.0316 237.087 15.9462C237.087 15.8607 237.119 15.7881 237.181 15.7284C237.244 15.6671 237.319 15.6365 237.407 15.6365C237.495 15.6365 237.571 15.6671 237.633 15.7284C237.696 15.7881 237.727 15.8607 237.727 15.9462C237.727 16.0316 237.696 16.105 237.633 16.1663C237.571 16.226 237.495 16.2558 237.407 16.2558Z" fill="#323232"/>
<path d="M235.941 16.8902V17.2652H234.179V16.8902H235.941ZM234.729 15.9998H235.16V19.6362C235.16 19.7911 235.186 19.9128 235.239 20.0016C235.292 20.0887 235.361 20.1508 235.446 20.1878C235.531 20.2233 235.621 20.2411 235.718 20.2411C235.774 20.2411 235.822 20.2379 235.862 20.2314C235.902 20.2233 235.937 20.2153 235.968 20.2072L236.059 20.5967C236.017 20.6129 235.966 20.6274 235.905 20.6403C235.844 20.6548 235.769 20.6621 235.679 20.6621C235.522 20.6621 235.371 20.6274 235.225 20.558C235.08 20.4887 234.962 20.3854 234.869 20.2483C234.776 20.1112 234.729 19.9411 234.729 19.7378V15.9998Z" fill="#323232"/>
<path d="M231.477 20.6911C231.255 20.6911 231.051 20.6476 230.867 20.5605C230.682 20.4718 230.536 20.3443 230.427 20.1782C230.318 20.0105 230.263 19.8072 230.263 19.5685C230.263 19.3846 230.298 19.2298 230.367 19.104C230.436 18.9782 230.533 18.8749 230.66 18.7943C230.787 18.7137 230.936 18.6499 231.11 18.6032C231.283 18.5564 231.473 18.5201 231.682 18.4943C231.889 18.4685 232.063 18.4459 232.206 18.4266C232.35 18.4072 232.46 18.3766 232.535 18.3346C232.611 18.2927 232.648 18.2249 232.648 18.1314V18.0443C232.648 17.7911 232.573 17.5919 232.422 17.4467C232.273 17.2999 232.058 17.2265 231.778 17.2265C231.512 17.2265 231.295 17.2854 231.126 17.4031C230.96 17.5209 230.843 17.6596 230.775 17.8193L230.369 17.6717C230.452 17.4685 230.568 17.3064 230.715 17.1854C230.863 17.0628 231.028 16.9749 231.211 16.9217C231.393 16.8668 231.578 16.8394 231.766 16.8394C231.907 16.8394 232.054 16.858 232.206 16.8951C232.36 16.9322 232.503 16.9967 232.634 17.0886C232.765 17.1789 232.872 17.3056 232.954 17.4685C233.035 17.6298 233.076 17.8346 233.076 18.083V20.6064H232.648V20.0185H232.622C232.571 20.1282 232.494 20.2347 232.394 20.3379C232.293 20.4411 232.166 20.5258 232.014 20.5919C231.861 20.6581 231.683 20.6911 231.477 20.6911ZM231.535 20.2968C231.763 20.2968 231.96 20.246 232.127 20.1443C232.293 20.0427 232.422 19.908 232.511 19.7403C232.603 19.5709 232.648 19.3846 232.648 19.1814V18.6443C232.616 18.6749 232.563 18.7024 232.487 18.7266C232.414 18.7508 232.328 18.7725 232.23 18.7919C232.134 18.8096 232.038 18.8249 231.941 18.8379C231.845 18.8508 231.759 18.862 231.682 18.8717C231.473 18.8975 231.295 18.9379 231.148 18.9927C231.001 19.0475 230.888 19.1233 230.809 19.2201C230.73 19.3153 230.691 19.4379 230.691 19.5879C230.691 19.8137 230.771 19.9887 230.932 20.1129C231.092 20.2355 231.293 20.2968 231.535 20.2968Z" fill="#323232"/>
<path d="M228.614 20.6108V16.8946H229.045V20.6108H228.614ZM228.833 16.2558C228.745 16.2558 228.669 16.226 228.607 16.1663C228.544 16.105 228.513 16.0316 228.513 15.9462C228.513 15.8607 228.544 15.7881 228.607 15.7284C228.669 15.6671 228.745 15.6365 228.833 15.6365C228.921 15.6365 228.996 15.6671 229.059 15.7284C229.122 15.7881 229.153 15.8607 229.153 15.9462C229.153 16.0316 229.122 16.105 229.059 16.1663C228.996 16.226 228.921 16.2558 228.833 16.2558Z" fill="#323232"/>
<path d="M226.012 20.6839C225.681 20.6839 225.394 20.6008 225.148 20.4347C224.905 20.2685 224.716 20.0411 224.581 19.7524C224.446 19.4637 224.379 19.1346 224.379 18.7653C224.379 18.3927 224.447 18.0612 224.583 17.7709C224.721 17.4806 224.912 17.2531 225.156 17.0886C225.399 16.9225 225.682 16.8394 226.004 16.8394C226.251 16.8394 226.475 16.8878 226.675 16.9846C226.876 17.0797 227.041 17.2144 227.17 17.3886C227.302 17.5612 227.384 17.7628 227.418 17.9935H226.985C226.94 17.7838 226.832 17.6048 226.661 17.4564C226.491 17.3064 226.274 17.2314 226.012 17.2314C225.776 17.2314 225.568 17.2959 225.386 17.4249C225.205 17.5523 225.063 17.7306 224.961 17.9596C224.86 18.187 224.809 18.4507 224.809 18.7508C224.809 19.0524 224.859 19.3193 224.958 19.5516C225.058 19.7822 225.197 19.9629 225.377 20.0935C225.558 20.2242 225.769 20.2895 226.012 20.2895C226.175 20.2895 226.324 20.2589 226.459 20.1976C226.595 20.1347 226.709 20.0459 226.8 19.9314C226.893 19.8169 226.956 19.6806 226.988 19.5225H227.421C227.388 19.7467 227.309 19.9467 227.182 20.1226C227.057 20.2968 226.895 20.4339 226.694 20.5339C226.496 20.6339 226.268 20.6839 226.012 20.6839Z" fill="#323232"/>
<path d="M221.733 20.6839C221.414 20.6839 221.132 20.6024 220.887 20.4395C220.643 20.2766 220.453 20.0516 220.315 19.7645C220.177 19.4758 220.108 19.1427 220.108 18.7653C220.108 18.3846 220.177 18.0499 220.315 17.7612C220.453 17.4709 220.643 17.2451 220.887 17.0838C221.132 16.9209 221.414 16.8394 221.733 16.8394C222.052 16.8394 222.334 16.9209 222.577 17.0838C222.821 17.2467 223.012 17.4725 223.15 17.7612C223.289 18.0499 223.359 18.3846 223.359 18.7653C223.359 19.1427 223.29 19.4758 223.152 19.7645C223.014 20.0516 222.823 20.2766 222.577 20.4395C222.334 20.6024 222.052 20.6839 221.733 20.6839ZM221.733 20.2895C221.99 20.2895 222.207 20.2201 222.385 20.0814C222.563 19.9427 222.697 19.758 222.789 19.5274C222.882 19.2967 222.928 19.0427 222.928 18.7653C222.928 18.4878 222.882 18.233 222.789 18.0007C222.697 17.7685 222.563 17.5822 222.385 17.4419C222.207 17.3015 221.99 17.2314 221.733 17.2314C221.478 17.2314 221.261 17.3015 221.082 17.4419C220.904 17.5822 220.768 17.7685 220.675 18.0007C220.584 18.233 220.538 18.4878 220.538 18.7653C220.538 19.0427 220.584 19.2967 220.675 19.5274C220.768 19.758 220.904 19.9427 221.082 20.0814C221.26 20.2201 221.477 20.2895 221.733 20.2895Z" fill="#323232"/>
<path d="M219.037 17.7056L218.645 17.8169C218.607 17.7056 218.552 17.6048 218.482 17.5144C218.411 17.4241 218.319 17.3523 218.205 17.2991C218.093 17.2459 217.954 17.2193 217.787 17.2193C217.537 17.2193 217.332 17.2789 217.171 17.3983C217.011 17.5177 216.931 17.6717 216.931 17.8604C216.931 18.0201 216.985 18.1499 217.094 18.2499C217.205 18.3483 217.375 18.4266 217.604 18.4846L218.162 18.6225C218.471 18.6983 218.703 18.8185 218.857 18.983C219.012 19.1475 219.09 19.354 219.09 19.6024C219.09 19.8121 219.032 19.9984 218.917 20.1613C218.802 20.3242 218.641 20.4524 218.434 20.546C218.229 20.6379 217.991 20.6839 217.72 20.6839C217.359 20.6839 217.062 20.6024 216.828 20.4395C216.594 20.275 216.444 20.0379 216.378 19.7282L216.789 19.6266C216.842 19.8476 216.945 20.0145 217.099 20.1274C217.255 20.2403 217.459 20.2968 217.712 20.2968C217.996 20.2968 218.223 20.233 218.393 20.1056C218.563 19.9766 218.648 19.8153 218.648 19.6217C218.648 19.4717 218.598 19.3459 218.499 19.2443C218.399 19.1411 218.249 19.0653 218.047 19.0169L217.443 18.8717C217.123 18.7943 216.885 18.6717 216.731 18.504C216.578 18.3362 216.501 18.1282 216.501 17.8798C216.501 17.6749 216.556 17.4951 216.666 17.3402C216.777 17.1838 216.929 17.0612 217.123 16.9725C217.317 16.8838 217.538 16.8394 217.787 16.8394C218.125 16.8394 218.395 16.9168 218.597 17.0717C218.801 17.2249 218.947 17.4362 219.037 17.7056Z" fill="#323232"/>
<path d="M215.295 17.7056L214.903 17.8169C214.864 17.7056 214.81 17.6048 214.739 17.5144C214.669 17.4241 214.576 17.3523 214.463 17.2991C214.35 17.2459 214.211 17.2193 214.044 17.2193C213.794 17.2193 213.589 17.2789 213.429 17.3983C213.268 17.5177 213.188 17.6717 213.188 17.8604C213.188 18.0201 213.243 18.1499 213.352 18.2499C213.462 18.3483 213.632 18.4266 213.862 18.4846L214.419 18.6225C214.729 18.6983 214.96 18.8185 215.114 18.983C215.27 19.1475 215.347 19.354 215.347 19.6024C215.347 19.8121 215.29 19.9984 215.174 20.1613C215.059 20.3242 214.898 20.4524 214.691 20.546C214.486 20.6379 214.248 20.6839 213.977 20.6839C213.616 20.6839 213.319 20.6024 213.085 20.4395C212.851 20.275 212.701 20.0379 212.635 19.7282L213.046 19.6266C213.099 19.8476 213.203 20.0145 213.357 20.1274C213.512 20.2403 213.716 20.2968 213.97 20.2968C214.253 20.2968 214.48 20.233 214.65 20.1056C214.82 19.9766 214.905 19.8153 214.905 19.6217C214.905 19.4717 214.855 19.3459 214.756 19.2443C214.657 19.1411 214.506 19.0653 214.304 19.0169L213.7 18.8717C213.38 18.7943 213.143 18.6717 212.989 18.504C212.835 18.3362 212.758 18.1282 212.758 17.8798C212.758 17.6749 212.813 17.4951 212.924 17.3402C213.034 17.1838 213.187 17.0612 213.381 16.9725C213.575 16.8838 213.796 16.8394 214.044 16.8394C214.382 16.8394 214.653 16.9168 214.855 17.0717C215.058 17.2249 215.205 17.4362 215.295 17.7056Z" fill="#323232"/>
<path d="M208.195 20.6053H207.724L209.515 15.6504H209.996L211.787 20.6053H211.316L209.772 16.2383H209.739L208.195 20.6053ZM208.534 18.7061H210.977V19.1125H208.534V18.7061Z" fill="#323232"/>
<path d="M202.83 20.6827C202.527 20.6827 202.262 20.6021 202.034 20.4408C201.807 20.2795 201.629 20.0545 201.501 19.7658C201.374 19.4771 201.311 19.1408 201.311 18.7569C201.311 18.3746 201.374 18.0399 201.501 17.7528C201.629 17.4641 201.807 17.2399 202.037 17.0802C202.266 16.9189 202.533 16.8383 202.837 16.8383C203.062 16.8383 203.249 16.8786 203.398 16.9593C203.547 17.0383 203.666 17.1367 203.756 17.2544C203.846 17.3722 203.915 17.4867 203.965 17.598H204.004V15.6504H204.434V20.6053H204.016V19.9158H203.965C203.915 20.0287 203.845 20.1448 203.753 20.2642C203.662 20.3819 203.541 20.4811 203.39 20.5618C203.241 20.6424 203.055 20.6827 202.83 20.6827ZM202.881 20.2884C203.119 20.2884 203.323 20.223 203.491 20.0924C203.66 19.9601 203.788 19.7787 203.876 19.548C203.966 19.3158 204.011 19.0496 204.011 18.7496C204.011 18.4528 203.967 18.1907 203.878 17.9633C203.79 17.7343 203.662 17.5552 203.494 17.4262C203.325 17.2956 203.121 17.2302 202.881 17.2302C202.634 17.2302 202.425 17.298 202.255 17.4335C202.087 17.5673 201.959 17.7488 201.871 17.9778C201.784 18.2069 201.741 18.4641 201.741 18.7496C201.741 19.0383 201.785 19.2988 201.873 19.5311C201.961 19.7634 202.09 19.948 202.258 20.0851C202.428 20.2206 202.635 20.2884 202.881 20.2884Z" fill="#323232"/>
<path d="M198.789 20.6839C198.444 20.6839 198.146 20.6032 197.895 20.4419C197.643 20.279 197.448 20.054 197.31 19.7669C197.174 19.4782 197.106 19.1459 197.106 18.7701C197.106 18.3959 197.174 18.0636 197.31 17.7733C197.448 17.4814 197.638 17.2531 197.88 17.0886C198.124 16.9225 198.405 16.8394 198.724 16.8394C198.925 16.8394 199.118 16.8765 199.304 16.9507C199.49 17.0233 199.656 17.1354 199.804 17.287C199.953 17.437 200.071 17.6265 200.157 17.8556C200.244 18.083 200.287 18.3524 200.287 18.6637V18.8766H197.402V18.4967H199.849C199.849 18.258 199.801 18.0435 199.705 17.8532C199.611 17.6612 199.478 17.5096 199.308 17.3983C199.14 17.287 198.945 17.2314 198.724 17.2314C198.49 17.2314 198.284 17.2943 198.106 17.4201C197.928 17.5459 197.789 17.712 197.688 17.9185C197.588 18.1249 197.538 18.3507 197.536 18.5959V18.8233C197.536 19.1185 197.587 19.3766 197.688 19.5975C197.79 19.8169 197.935 19.9871 198.123 20.108C198.311 20.229 198.533 20.2895 198.789 20.2895C198.964 20.2895 199.117 20.2621 199.248 20.2072C199.381 20.1524 199.493 20.079 199.583 19.9871C199.674 19.8935 199.743 19.7911 199.789 19.6798L200.196 19.8129C200.14 19.9693 200.047 20.1137 199.919 20.246C199.793 20.3782 199.634 20.4847 199.443 20.5653C199.254 20.6443 199.036 20.6839 198.789 20.6839Z" fill="#323232"/>
<path d="M196.092 16.8902V17.2652H194.33V16.8902H196.092ZM194.88 15.9998H195.311V19.6362C195.311 19.7911 195.337 19.9128 195.39 20.0016C195.443 20.0887 195.512 20.1508 195.597 20.1878C195.682 20.2233 195.772 20.2411 195.868 20.2411C195.925 20.2411 195.973 20.2379 196.013 20.2314C196.053 20.2233 196.088 20.2153 196.118 20.2072L196.21 20.5967C196.168 20.6129 196.117 20.6274 196.056 20.6403C195.995 20.6548 195.92 20.6621 195.83 20.6621C195.673 20.6621 195.521 20.6274 195.376 20.558C195.231 20.4887 195.113 20.3854 195.02 20.2483C194.927 20.1112 194.88 19.9411 194.88 19.7378V15.9998Z" fill="#323232"/>
<path d="M191.629 20.6911C191.406 20.6911 191.203 20.6476 191.019 20.5605C190.834 20.4718 190.688 20.3443 190.579 20.1782C190.47 20.0105 190.415 19.8072 190.415 19.5685C190.415 19.3846 190.45 19.2298 190.518 19.104C190.587 18.9782 190.685 18.8749 190.812 18.7943C190.938 18.7137 191.088 18.6499 191.261 18.6032C191.435 18.5564 191.625 18.5201 191.834 18.4943C192.04 18.4685 192.215 18.4459 192.358 18.4266C192.502 18.4072 192.612 18.3766 192.687 18.3346C192.763 18.2927 192.8 18.2249 192.8 18.1314V18.0443C192.8 17.7911 192.725 17.5919 192.574 17.4467C192.425 17.2999 192.21 17.2265 191.93 17.2265C191.664 17.2265 191.447 17.2854 191.278 17.4031C191.112 17.5209 190.995 17.6596 190.927 17.8193L190.521 17.6717C190.604 17.4685 190.72 17.3064 190.867 17.1854C191.015 17.0628 191.18 16.9749 191.362 16.9217C191.545 16.8668 191.73 16.8394 191.918 16.8394C192.059 16.8394 192.206 16.858 192.358 16.8951C192.512 16.9322 192.654 16.9967 192.786 17.0886C192.917 17.1789 193.024 17.3056 193.106 17.4685C193.187 17.6298 193.228 17.8346 193.228 18.083V20.6064H192.8V20.0185H192.774C192.722 20.1282 192.646 20.2347 192.545 20.3379C192.444 20.4411 192.318 20.5258 192.165 20.5919C192.013 20.6581 191.834 20.6911 191.629 20.6911ZM191.687 20.2968C191.915 20.2968 192.112 20.246 192.278 20.1443C192.445 20.0427 192.573 19.908 192.663 19.7403C192.755 19.5709 192.8 19.3846 192.8 19.1814V18.6443C192.768 18.6749 192.714 18.7024 192.639 18.7266C192.565 18.7508 192.48 18.7725 192.382 18.7919C192.286 18.8096 192.19 18.8249 192.093 18.8379C191.997 18.8508 191.911 18.862 191.834 18.8717C191.625 18.8975 191.447 18.9379 191.3 18.9927C191.152 19.0475 191.039 19.1233 190.961 19.2201C190.882 19.3153 190.843 19.4379 190.843 19.5879C190.843 19.8137 190.923 19.9887 191.083 20.1129C191.244 20.2355 191.445 20.2968 191.687 20.2968Z" fill="#323232"/>
<path d="M187.914 20.6113V16.8951H188.33V17.466H188.361C188.435 17.2789 188.563 17.1281 188.746 17.0136C188.93 16.8975 189.138 16.8394 189.371 16.8394C189.406 16.8394 189.445 16.8402 189.488 16.8418C189.532 16.8434 189.568 16.8451 189.597 16.8467V17.2846C189.577 17.2814 189.544 17.2765 189.496 17.2701C189.448 17.2636 189.395 17.2604 189.339 17.2604C189.147 17.2604 188.976 17.3015 188.825 17.3838C188.676 17.4644 188.558 17.5765 188.471 17.7201C188.385 17.8636 188.342 18.0273 188.342 18.2112V20.6113H187.914Z" fill="#323232"/>
<path d="M185.078 20.6839C184.759 20.6839 184.476 20.6024 184.231 20.4395C183.988 20.2766 183.797 20.0516 183.659 19.7645C183.521 19.4758 183.452 19.1427 183.452 18.7653C183.452 18.3846 183.521 18.0499 183.659 17.7612C183.797 17.4709 183.988 17.2451 184.231 17.0838C184.476 16.9209 184.759 16.8394 185.078 16.8394C185.397 16.8394 185.678 16.9209 185.922 17.0838C186.165 17.2467 186.356 17.4725 186.494 17.7612C186.633 18.0499 186.703 18.3846 186.703 18.7653C186.703 19.1427 186.634 19.4758 186.496 19.7645C186.358 20.0516 186.167 20.2766 185.922 20.4395C185.678 20.6024 185.397 20.6839 185.078 20.6839ZM185.078 20.2895C185.334 20.2895 185.551 20.2201 185.729 20.0814C185.907 19.9427 186.042 19.758 186.133 19.5274C186.226 19.2967 186.273 19.0427 186.273 18.7653C186.273 18.4878 186.226 18.233 186.133 18.0007C186.042 17.7685 185.907 17.5822 185.729 17.4419C185.551 17.3015 185.334 17.2314 185.078 17.2314C184.823 17.2314 184.605 17.3015 184.426 17.4419C184.248 17.5822 184.113 17.7685 184.02 18.0007C183.928 18.233 183.883 18.4878 183.883 18.7653C183.883 19.0427 183.928 19.2967 184.02 19.5274C184.113 19.758 184.248 19.9427 184.426 20.0814C184.604 20.2201 184.821 20.2895 185.078 20.2895Z" fill="#323232"/>
<path d="M179.312 22V16.8902H179.728V17.5991H179.778C179.83 17.4878 179.9 17.3741 179.99 17.258C180.08 17.1402 180.198 17.041 180.346 16.9604C180.495 16.8797 180.683 16.8394 180.909 16.8394C181.213 16.8394 181.479 16.9201 181.707 17.0814C181.936 17.241 182.114 17.4652 182.241 17.754C182.369 18.0411 182.433 18.3757 182.433 18.758C182.433 19.1419 182.369 19.4782 182.241 19.7669C182.114 20.0556 181.936 20.2806 181.707 20.4419C181.479 20.6032 181.215 20.6839 180.913 20.6839C180.691 20.6839 180.504 20.6435 180.353 20.5629C180.204 20.4822 180.083 20.383 179.99 20.2653C179.899 20.1459 179.828 20.0298 179.778 19.9169H179.74V22H179.312ZM179.735 18.7508C179.735 19.0508 179.779 19.3169 179.867 19.5492C179.957 19.7798 180.085 19.9613 180.252 20.0935C180.42 20.2242 180.624 20.2895 180.863 20.2895C181.108 20.2895 181.315 20.2218 181.483 20.0863C181.653 19.9492 181.782 19.7645 181.87 19.5322C181.96 19.3 182.005 19.0395 182.005 18.7508C182.005 18.4653 181.961 18.208 181.873 17.979C181.786 17.7499 181.658 17.5685 181.488 17.4346C181.318 17.2991 181.11 17.2314 180.863 17.2314C180.622 17.2314 180.418 17.2967 180.25 17.4273C180.081 17.5564 179.953 17.7354 179.865 17.9644C179.778 18.1919 179.735 18.454 179.735 18.7508Z" fill="#323232"/>
<path d="M176.627 20.6113V16.8951H177.043V17.466H177.074C177.148 17.2789 177.276 17.1281 177.459 17.0136C177.643 16.8975 177.852 16.8394 178.084 16.8394C178.119 16.8394 178.159 16.8402 178.202 16.8418C178.245 16.8434 178.281 16.8451 178.31 16.8467V17.2846C178.291 17.2814 178.257 17.2765 178.209 17.2701C178.161 17.2636 178.109 17.2604 178.053 17.2604C177.86 17.2604 177.689 17.3015 177.538 17.3838C177.389 17.4644 177.271 17.5765 177.185 17.7201C177.098 17.8636 177.055 18.0273 177.055 18.2112V20.6113H176.627Z" fill="#323232"/>
<path d="M173.792 20.6839C173.473 20.6839 173.191 20.6024 172.946 20.4395C172.702 20.2766 172.511 20.0516 172.373 19.7645C172.235 19.4758 172.167 19.1427 172.167 18.7653C172.167 18.3846 172.235 18.0499 172.373 17.7612C172.511 17.4709 172.702 17.2451 172.946 17.0838C173.191 16.9209 173.473 16.8394 173.792 16.8394C174.111 16.8394 174.392 16.9209 174.636 17.0838C174.88 17.2467 175.07 17.4725 175.208 17.7612C175.348 18.0499 175.417 18.3846 175.417 18.7653C175.417 19.1427 175.348 19.4758 175.211 19.7645C175.073 20.0516 174.881 20.2766 174.636 20.4395C174.392 20.6024 174.111 20.6839 173.792 20.6839ZM173.792 20.2895C174.048 20.2895 174.266 20.2201 174.444 20.0814C174.621 19.9427 174.756 19.758 174.847 19.5274C174.94 19.2967 174.987 19.0427 174.987 18.7653C174.987 18.4878 174.94 18.233 174.847 18.0007C174.756 17.7685 174.621 17.5822 174.444 17.4419C174.266 17.3015 174.048 17.2314 173.792 17.2314C173.537 17.2314 173.32 17.3015 173.14 17.4419C172.962 17.5822 172.827 17.7685 172.734 18.0007C172.643 18.233 172.597 18.4878 172.597 18.7653C172.597 19.0427 172.643 19.2967 172.734 19.5274C172.827 19.758 172.962 19.9427 173.14 20.0814C173.318 20.2201 173.535 20.2895 173.792 20.2895Z" fill="#323232"/>
<path d="M169.759 20.6839C169.428 20.6839 169.141 20.6008 168.895 20.4347C168.652 20.2685 168.463 20.0411 168.328 19.7524C168.193 19.4637 168.126 19.1346 168.126 18.7653C168.126 18.3927 168.194 18.0612 168.33 17.7709C168.468 17.4806 168.659 17.2531 168.903 17.0886C169.146 16.9225 169.429 16.8394 169.751 16.8394C169.998 16.8394 170.222 16.8878 170.422 16.9846C170.623 17.0797 170.788 17.2144 170.918 17.3886C171.049 17.5612 171.132 17.7628 171.165 17.9935H170.732C170.688 17.7838 170.579 17.6048 170.408 17.4564C170.238 17.3064 170.021 17.2314 169.759 17.2314C169.523 17.2314 169.315 17.2959 169.133 17.4249C168.952 17.5523 168.81 17.7306 168.708 17.9596C168.607 18.187 168.556 18.4507 168.556 18.7508C168.556 19.0524 168.606 19.3193 168.705 19.5516C168.805 19.7822 168.944 19.9629 169.124 20.0935C169.305 20.2242 169.517 20.2895 169.759 20.2895C169.922 20.2895 170.071 20.2589 170.206 20.1976C170.342 20.1347 170.456 20.0459 170.547 19.9314C170.64 19.8169 170.703 19.6806 170.735 19.5225H171.168C171.136 19.7467 171.056 19.9467 170.93 20.1226C170.805 20.2968 170.642 20.4339 170.441 20.5339C170.243 20.6339 170.015 20.6839 169.759 20.6839Z" fill="#323232"/>
<path d="M164.553 18.2839V20.6065H164.125V16.8903H164.54V17.4734H164.579C164.666 17.283 164.8 17.1306 164.983 17.0161C165.167 16.9 165.395 16.8419 165.666 16.8419C165.914 16.8419 166.132 16.8943 166.32 16.9992C166.509 17.1024 166.656 17.2548 166.76 17.4564C166.866 17.658 166.918 17.9056 166.918 18.1992V20.6065H166.49V18.2258C166.49 17.9209 166.406 17.6798 166.236 17.5024C166.067 17.325 165.841 17.2363 165.558 17.2363C165.364 17.2363 165.191 17.2782 165.041 17.3621C164.89 17.4459 164.77 17.5669 164.682 17.725C164.596 17.8814 164.553 18.0677 164.553 18.2839Z" fill="#323232"/>
<path d="M162.633 15.6504V20.6053H162.184V15.6504H162.633Z" fill="#323232"/>
<path d="M158.516 15.6504V20.6053H158.088V15.6504H158.516Z" fill="#323232"/>
<path d="M155.08 20.6911C154.857 20.6911 154.654 20.6476 154.469 20.5605C154.285 20.4718 154.138 20.3443 154.029 20.1782C153.92 20.0105 153.866 19.8072 153.866 19.5685C153.866 19.3846 153.9 19.2298 153.969 19.104C154.038 18.9782 154.136 18.8749 154.262 18.7943C154.389 18.7137 154.539 18.6499 154.712 18.6032C154.885 18.5564 155.076 18.5201 155.284 18.4943C155.491 18.4685 155.666 18.4459 155.809 18.4266C155.953 18.4072 156.063 18.3766 156.138 18.3346C156.213 18.2927 156.251 18.2249 156.251 18.1314V18.0443C156.251 17.7911 156.176 17.5919 156.025 17.4467C155.876 17.2999 155.661 17.2265 155.381 17.2265C155.114 17.2265 154.897 17.2854 154.729 17.4031C154.562 17.5209 154.445 17.6596 154.378 17.8193L153.972 17.6717C154.055 17.4685 154.17 17.3064 154.318 17.1854C154.465 17.0628 154.63 16.9749 154.813 16.9217C154.996 16.8668 155.181 16.8394 155.368 16.8394C155.51 16.8394 155.656 16.858 155.809 16.8951C155.962 16.9322 156.105 16.9967 156.236 17.0886C156.368 17.1789 156.475 17.3056 156.556 17.4685C156.638 17.6298 156.679 17.8346 156.679 18.083V20.6064H156.251V20.0185H156.224C156.173 20.1282 156.097 20.2347 155.996 20.3379C155.895 20.4411 155.768 20.5258 155.616 20.5919C155.464 20.6581 155.285 20.6911 155.08 20.6911ZM155.138 20.2968C155.365 20.2968 155.562 20.246 155.729 20.1443C155.896 20.0427 156.024 19.908 156.114 19.7403C156.205 19.5709 156.251 19.3846 156.251 19.1814V18.6443C156.219 18.6749 156.165 18.7024 156.09 18.7266C156.016 18.7508 155.93 18.7725 155.833 18.7919C155.736 18.8096 155.64 18.8249 155.544 18.8379C155.448 18.8508 155.361 18.862 155.284 18.8717C155.076 18.8975 154.898 18.9379 154.751 18.9927C154.603 19.0475 154.49 19.1233 154.412 19.2201C154.333 19.3153 154.294 19.4379 154.294 19.5879C154.294 19.8137 154.374 19.9887 154.534 20.1129C154.694 20.2355 154.896 20.2968 155.138 20.2968Z" fill="#323232"/>
<path d="M151.364 20.6113V16.8951H151.78V17.466H151.811C151.885 17.2789 152.013 17.1281 152.196 17.0136C152.38 16.8975 152.588 16.8394 152.821 16.8394C152.856 16.8394 152.895 16.8402 152.939 16.8418C152.982 16.8434 153.018 16.8451 153.047 16.8467V17.2846C153.028 17.2814 152.994 17.2765 152.946 17.2701C152.898 17.2636 152.846 17.2604 152.79 17.2604C152.597 17.2604 152.426 17.3015 152.275 17.3838C152.126 17.4644 152.008 17.5765 151.922 17.7201C151.835 17.8636 151.792 18.0273 151.792 18.2112V20.6113H151.364Z" fill="#323232"/>
<path d="M148.652 20.6839C148.307 20.6839 148.009 20.6032 147.757 20.4419C147.506 20.279 147.311 20.054 147.173 19.7669C147.037 19.4782 146.969 19.1459 146.969 18.7701C146.969 18.3959 147.037 18.0636 147.173 17.7733C147.311 17.4814 147.501 17.2531 147.743 17.0886C147.987 16.9225 148.268 16.8394 148.587 16.8394C148.787 16.8394 148.98 16.8765 149.166 16.9507C149.352 17.0233 149.519 17.1354 149.667 17.287C149.816 17.437 149.933 17.6265 150.02 17.8556C150.107 18.083 150.15 18.3524 150.15 18.6637V18.8766H147.264V18.4967H149.712C149.712 18.258 149.664 18.0435 149.568 17.8532C149.473 17.6612 149.341 17.5096 149.171 17.3983C149.003 17.287 148.808 17.2314 148.587 17.2314C148.353 17.2314 148.147 17.2943 147.969 17.4201C147.791 17.5459 147.652 17.712 147.551 17.9185C147.451 18.1249 147.401 18.3507 147.399 18.5959V18.8233C147.399 19.1185 147.45 19.3766 147.551 19.5975C147.653 19.8169 147.798 19.9871 147.986 20.108C148.173 20.229 148.395 20.2895 148.652 20.2895C148.827 20.2895 148.98 20.2621 149.111 20.2072C149.244 20.1524 149.356 20.079 149.445 19.9871C149.537 19.8935 149.606 19.7911 149.652 19.6798L150.058 19.8129C150.002 19.9693 149.91 20.1137 149.782 20.246C149.655 20.3782 149.497 20.4847 149.306 20.5653C149.117 20.6443 148.899 20.6839 148.652 20.6839Z" fill="#323232"/>
<path d="M143.395 18.2839V20.6065H142.967V16.8903H143.383V17.4734H143.422C143.508 17.283 143.643 17.1306 143.826 17.0161C144.01 16.9 144.238 16.8419 144.509 16.8419C144.757 16.8419 144.975 16.8943 145.163 16.9992C145.352 17.1024 145.498 17.2548 145.603 17.4564C145.708 17.658 145.761 17.9056 145.761 18.1992V20.6065H145.333V18.2258C145.333 17.9209 145.248 17.6798 145.078 17.5024C144.91 17.325 144.684 17.2363 144.4 17.2363C144.206 17.2363 144.034 17.2782 143.883 17.3621C143.733 17.4459 143.613 17.5669 143.525 17.725C143.439 17.8814 143.395 18.0677 143.395 18.2839Z" fill="#323232"/>
<path d="M140.255 20.6839C139.911 20.6839 139.613 20.6032 139.361 20.4419C139.109 20.279 138.914 20.054 138.777 19.7669C138.64 19.4782 138.572 19.1459 138.572 18.7701C138.572 18.3959 138.64 18.0636 138.777 17.7733C138.914 17.4814 139.104 17.2531 139.346 17.0886C139.59 16.9225 139.871 16.8394 140.19 16.8394C140.391 16.8394 140.584 16.8765 140.77 16.9507C140.956 17.0233 141.123 17.1354 141.27 17.287C141.419 17.437 141.537 17.6265 141.623 17.8556C141.71 18.083 141.753 18.3524 141.753 18.6637V18.8766H138.868V18.4967H141.316C141.316 18.258 141.268 18.0435 141.171 17.8532C141.077 17.6612 140.945 17.5096 140.775 17.3983C140.606 17.287 140.412 17.2314 140.19 17.2314C139.956 17.2314 139.75 17.2943 139.573 17.4201C139.395 17.5459 139.255 17.712 139.154 17.9185C139.055 18.1249 139.004 18.3507 139.003 18.5959V18.8233C139.003 19.1185 139.053 19.3766 139.154 19.5975C139.257 19.8169 139.402 19.9871 139.589 20.108C139.777 20.229 139.999 20.2895 140.255 20.2895C140.43 20.2895 140.583 20.2621 140.715 20.2072C140.848 20.1524 140.959 20.079 141.049 19.9871C141.14 19.8935 141.209 19.7911 141.256 19.6798L141.662 19.8129C141.606 19.9693 141.514 20.1137 141.385 20.246C141.259 20.3782 141.1 20.4847 140.909 20.5653C140.72 20.6443 140.502 20.6839 140.255 20.6839Z" fill="#323232"/>
<path d="M136.969 17.1992C136.924 17.0347 136.858 16.8806 136.771 16.7371C136.685 16.5919 136.578 16.4653 136.449 16.3573C136.323 16.2476 136.176 16.1621 136.009 16.1008C135.844 16.0395 135.66 16.0089 135.456 16.0089C135.136 16.0089 134.849 16.0927 134.595 16.2605C134.342 16.4282 134.142 16.6702 133.994 16.9863C133.848 17.3024 133.776 17.6831 133.776 18.1283C133.776 18.5718 133.849 18.9517 133.997 19.2678C134.144 19.5839 134.346 19.8267 134.603 19.996C134.861 20.1638 135.156 20.2477 135.487 20.2477C135.79 20.2477 136.058 20.1799 136.291 20.0444C136.523 19.9089 136.704 19.7154 136.834 19.4638C136.965 19.2122 137.03 18.913 137.026 18.5662L137.171 18.6121H135.593V18.2057H137.464V18.6121C137.464 19.0347 137.379 19.4001 137.209 19.7081C137.039 20.0162 136.806 20.2541 136.509 20.4219C136.213 20.5896 135.872 20.6735 135.487 20.6735C135.058 20.6735 134.682 20.5694 134.36 20.3614C134.038 20.1517 133.787 19.8565 133.607 19.4759C133.429 19.0936 133.34 18.6444 133.34 18.1283C133.34 17.7395 133.392 17.3887 133.494 17.0758C133.597 16.7629 133.742 16.4952 133.929 16.2726C134.119 16.05 134.342 15.8798 134.6 15.7621C134.858 15.6427 135.144 15.583 135.456 15.583C135.726 15.583 135.972 15.6258 136.194 15.7113C136.419 15.7968 136.616 15.9145 136.786 16.0645C136.957 16.2129 137.098 16.3847 137.207 16.5798C137.317 16.7734 137.392 16.9798 137.43 17.1992H136.969Z" fill="#323232"/>
<path d="M128.586 20.6839C128.241 20.6839 127.943 20.6032 127.691 20.4419C127.44 20.279 127.245 20.054 127.107 19.7669C126.971 19.4782 126.903 19.1459 126.903 18.7701C126.903 18.3959 126.971 18.0636 127.107 17.7733C127.245 17.4814 127.435 17.2531 127.677 17.0886C127.921 16.9225 128.202 16.8394 128.521 16.8394C128.721 16.8394 128.915 16.8765 129.1 16.9507C129.286 17.0233 129.453 17.1354 129.601 17.287C129.75 17.437 129.867 17.6265 129.954 17.8556C130.041 18.083 130.084 18.3524 130.084 18.6637V18.8766H127.199V18.4967H129.646C129.646 18.258 129.598 18.0435 129.502 17.8532C129.407 17.6612 129.275 17.5096 129.105 17.3983C128.937 17.287 128.742 17.2314 128.521 17.2314C128.287 17.2314 128.081 17.2943 127.903 17.4201C127.725 17.5459 127.586 17.712 127.485 17.9185C127.385 18.1249 127.335 18.3507 127.333 18.5959V18.8233C127.333 19.1185 127.384 19.3766 127.485 19.5975C127.587 19.8169 127.732 19.9871 127.92 20.108C128.107 20.229 128.329 20.2895 128.586 20.2895C128.761 20.2895 128.914 20.2621 129.045 20.2072C129.178 20.1524 129.29 20.079 129.379 19.9871C129.471 19.8935 129.54 19.7911 129.586 19.6798L129.993 19.8129C129.936 19.9693 129.844 20.1137 129.716 20.246C129.589 20.3782 129.431 20.4847 129.24 20.5653C129.051 20.6443 128.833 20.6839 128.586 20.6839Z" fill="#323232"/>
<path d="M124.521 20.6113V16.8951H124.936V17.466H124.968C125.041 17.2789 125.17 17.1281 125.352 17.0136C125.537 16.8975 125.745 16.8394 125.978 16.8394C126.013 16.8394 126.052 16.8402 126.095 16.8418C126.139 16.8434 126.175 16.8451 126.204 16.8467V17.2846C126.184 17.2814 126.151 17.2765 126.103 17.2701C126.055 17.2636 126.002 17.2604 125.946 17.2604C125.754 17.2604 125.582 17.3015 125.432 17.3838C125.283 17.4644 125.165 17.5765 125.078 17.7201C124.992 17.8636 124.949 18.0273 124.949 18.2112V20.6113H124.521Z" fill="#323232"/>
<path d="M121.512 20.6911C121.289 20.6911 121.086 20.6476 120.901 20.5605C120.717 20.4718 120.57 20.3443 120.461 20.1782C120.352 20.0105 120.298 19.8072 120.298 19.5685C120.298 19.3846 120.332 19.2298 120.401 19.104C120.47 18.9782 120.568 18.8749 120.695 18.7943C120.821 18.7137 120.971 18.6499 121.144 18.6032C121.317 18.5564 121.508 18.5201 121.716 18.4943C121.923 18.4685 122.098 18.4459 122.241 18.4266C122.385 18.4072 122.495 18.3766 122.57 18.3346C122.645 18.2927 122.683 18.2249 122.683 18.1314V18.0443C122.683 17.7911 122.608 17.5919 122.457 17.4467C122.308 17.2999 122.093 17.2265 121.813 17.2265C121.547 17.2265 121.329 17.2854 121.161 17.4031C120.994 17.5209 120.877 17.6596 120.81 17.8193L120.404 17.6717C120.487 17.4685 120.602 17.3064 120.75 17.1854C120.897 17.0628 121.062 16.9749 121.245 16.9217C121.428 16.8668 121.613 16.8394 121.801 16.8394C121.942 16.8394 122.088 16.858 122.241 16.8951C122.395 16.9322 122.537 16.9967 122.669 17.0886C122.8 17.1789 122.907 17.3056 122.988 17.4685C123.07 17.6298 123.111 17.8346 123.111 18.083V20.6064H122.683V20.0185H122.657C122.605 20.1282 122.529 20.2347 122.428 20.3379C122.327 20.4411 122.201 20.5258 122.048 20.5919C121.896 20.6581 121.717 20.6911 121.512 20.6911ZM121.57 20.2968C121.797 20.2968 121.995 20.246 122.161 20.1443C122.328 20.0427 122.456 19.908 122.546 19.7403C122.637 19.5709 122.683 19.3846 122.683 19.1814V18.6443C122.651 18.6749 122.597 18.7024 122.522 18.7266C122.448 18.7508 122.362 18.7725 122.265 18.7919C122.168 18.8096 122.072 18.8249 121.976 18.8379C121.88 18.8508 121.793 18.862 121.716 18.8717C121.508 18.8975 121.33 18.9379 121.183 18.9927C121.035 19.0475 120.922 19.1233 120.844 19.2201C120.765 19.3153 120.726 19.4379 120.726 19.5879C120.726 19.8137 120.806 19.9887 120.966 20.1129C121.127 20.2355 121.328 20.2968 121.57 20.2968Z" fill="#323232"/>
<path d="M119.455 16.8907V17.2657H117.64V16.8907H119.455ZM118.207 20.607V16.3464C118.207 16.1464 118.253 15.9778 118.344 15.8407C118.437 15.7036 118.558 15.5996 118.707 15.5286C118.856 15.4576 119.014 15.4221 119.181 15.4221C119.293 15.4221 119.386 15.4318 119.46 15.4512C119.535 15.4689 119.594 15.4867 119.638 15.5044L119.513 15.8818C119.481 15.8722 119.441 15.8609 119.395 15.848C119.348 15.8351 119.29 15.8286 119.219 15.8286C119.033 15.8286 118.89 15.881 118.789 15.9859C118.688 16.0907 118.637 16.2407 118.637 16.4359L118.635 20.607H118.207Z" fill="#323232"/>
<path d="M116.532 15.6504V20.6053H116.104V15.6504H116.532Z" fill="#323232"/>
<path d="M113.392 20.6839C113.047 20.6839 112.749 20.6032 112.498 20.4419C112.246 20.279 112.051 20.054 111.913 19.7669C111.777 19.4782 111.709 19.1459 111.709 18.7701C111.709 18.3959 111.777 18.0636 111.913 17.7733C112.051 17.4814 112.241 17.2531 112.483 17.0886C112.727 16.9225 113.008 16.8394 113.327 16.8394C113.528 16.8394 113.721 16.8765 113.907 16.9507C114.093 17.0233 114.259 17.1354 114.407 17.287C114.556 17.437 114.674 17.6265 114.76 17.8556C114.847 18.083 114.89 18.3524 114.89 18.6637V18.8766H112.005V18.4967H114.452C114.452 18.258 114.404 18.0435 114.308 17.8532C114.214 17.6612 114.081 17.5096 113.911 17.3983C113.743 17.287 113.548 17.2314 113.327 17.2314C113.093 17.2314 112.887 17.2943 112.709 17.4201C112.531 17.5459 112.392 17.712 112.291 17.9185C112.191 18.1249 112.141 18.3507 112.139 18.5959V18.8233C112.139 19.1185 112.19 19.3766 112.291 19.5975C112.393 19.8169 112.539 19.9871 112.726 20.108C112.914 20.229 113.136 20.2895 113.392 20.2895C113.567 20.2895 113.72 20.2621 113.851 20.2072C113.984 20.1524 114.096 20.079 114.186 19.9871C114.277 19.8935 114.346 19.7911 114.392 19.6798L114.799 19.8129C114.743 19.9693 114.65 20.1137 114.522 20.246C114.396 20.3782 114.237 20.4847 114.046 20.5653C113.857 20.6443 113.639 20.6839 113.392 20.6839Z" fill="#323232"/>
<path d="M106.622 20.6053L105.273 15.6504H105.73L106.846 19.9109H106.884L108 15.6504H108.519L109.635 19.9109H109.674L110.789 15.6504H111.248L109.9 20.6053H109.419L108.277 16.4028H108.245L107.103 20.6053H106.622Z" fill="#323232"/>
<path d="M99.7376 18.2839V20.6065H99.3096V16.8903H99.7255V17.4734H99.764C99.8506 17.283 99.9852 17.1306 100.168 17.0161C100.352 16.9 100.58 16.8419 100.851 16.8419C101.099 16.8419 101.317 16.8943 101.505 16.9992C101.694 17.1024 101.841 17.2548 101.945 17.4564C102.051 17.658 102.104 17.9056 102.104 18.1992V20.6065H101.676V18.2258C101.676 17.9209 101.591 17.6798 101.421 17.5024C101.252 17.325 101.026 17.2363 100.743 17.2363C100.549 17.2363 100.376 17.2782 100.226 17.3621C100.075 17.4459 99.9556 17.5669 99.8674 17.725C99.7808 17.8814 99.7376 18.0677 99.7376 18.2839Z" fill="#323232"/>
<path d="M96.474 20.6839C96.155 20.6839 95.8729 20.6024 95.6277 20.4395C95.384 20.2766 95.1933 20.0516 95.0554 19.7645C94.9176 19.4758 94.8486 19.1427 94.8486 18.7653C94.8486 18.3846 94.9176 18.0499 95.0554 17.7612C95.1933 17.4709 95.384 17.2451 95.6277 17.0838C95.8729 16.9209 96.155 16.8394 96.474 16.8394C96.793 16.8394 97.0743 16.9209 97.318 17.0838C97.5616 17.2467 97.7524 17.4725 97.8902 17.7612C98.0297 18.0499 98.0994 18.3846 98.0994 18.7653C98.0994 19.1427 98.0305 19.4758 97.8926 19.7645C97.7548 20.0516 97.5632 20.2766 97.318 20.4395C97.0743 20.6024 96.793 20.6839 96.474 20.6839ZM96.474 20.2895C96.7305 20.2895 96.9477 20.2201 97.1256 20.0814C97.3036 19.9427 97.4382 19.758 97.5296 19.5274C97.6225 19.2967 97.669 19.0427 97.669 18.7653C97.669 18.4878 97.6225 18.233 97.5296 18.0007C97.4382 17.7685 97.3036 17.5822 97.1256 17.4419C96.9477 17.3015 96.7305 17.2314 96.474 17.2314C96.2192 17.2314 96.002 17.3015 95.8224 17.4419C95.6445 17.5822 95.509 17.7685 95.4161 18.0007C95.3247 18.233 95.279 18.4878 95.279 18.7653C95.279 19.0427 95.3247 19.2967 95.4161 19.5274C95.509 19.758 95.6445 19.9427 95.8224 20.0814C96.0004 20.2201 96.2176 20.2895 96.474 20.2895Z" fill="#323232"/>
<path d="M90.7041 20.6053V15.6504H91.1345V17.598H91.173C91.2211 17.4867 91.29 17.3722 91.3798 17.2544C91.4711 17.1367 91.5905 17.0383 91.738 16.9593C91.8871 16.8786 92.0746 16.8383 92.3006 16.8383C92.6036 16.8383 92.8697 16.9189 93.0989 17.0802C93.3281 17.2399 93.5069 17.4641 93.6351 17.7528C93.7633 18.0399 93.8275 18.3746 93.8275 18.7569C93.8275 19.1408 93.7633 19.4771 93.6351 19.7658C93.5085 20.0545 93.3305 20.2795 93.1013 20.4408C92.8737 20.6021 92.6092 20.6827 92.3079 20.6827C92.0834 20.6827 91.8959 20.6424 91.7452 20.5618C91.5961 20.4811 91.4759 20.3819 91.3846 20.2642C91.2932 20.1448 91.2227 20.0287 91.173 19.9158H91.1201V20.6053H90.7041ZM91.1273 18.7496C91.1273 19.0496 91.1714 19.3158 91.2595 19.548C91.3493 19.7787 91.4775 19.9601 91.6442 20.0924C91.8125 20.223 92.0161 20.2884 92.255 20.2884C92.5002 20.2884 92.7078 20.2206 92.8777 20.0851C93.0476 19.948 93.1767 19.7634 93.2648 19.5311C93.353 19.2988 93.3971 19.0383 93.3971 18.7496C93.3971 18.4641 93.353 18.2069 93.2648 17.9778C93.1783 17.7488 93.05 17.5673 92.8801 17.4335C92.7102 17.298 92.5018 17.2302 92.255 17.2302C92.0145 17.2302 91.8101 17.2956 91.6418 17.4262C91.4751 17.5552 91.3477 17.7343 91.2595 17.9633C91.1714 18.1907 91.1273 18.4528 91.1273 18.7496Z" fill="#323232"/>
<path d="M87.9312 20.6113V16.8951H88.3471V17.466H88.3784C88.4521 17.2789 88.5803 17.1281 88.7631 17.0136C88.9474 16.8975 89.1558 16.8394 89.3882 16.8394C89.4235 16.8394 89.4628 16.8402 89.5061 16.8418C89.5493 16.8434 89.5854 16.8451 89.6143 16.8467V17.2846C89.595 17.2814 89.5614 17.2765 89.5133 17.2701C89.4652 17.2636 89.4131 17.2604 89.357 17.2604C89.1646 17.2604 88.9931 17.3015 88.8424 17.3838C88.6934 17.4644 88.5755 17.5765 88.489 17.7201C88.4024 17.8636 88.3591 18.0273 88.3591 18.2112V20.6113H87.9312Z" fill="#323232"/>
<path d="M84.9227 20.6911C84.6999 20.6911 84.4963 20.6476 84.312 20.5605C84.1277 20.4718 83.981 20.3443 83.872 20.1782C83.763 20.0105 83.7085 19.8072 83.7085 19.5685C83.7085 19.3846 83.743 19.2298 83.8119 19.104C83.8808 18.9782 83.9786 18.8749 84.1052 18.7943C84.2319 18.7137 84.3817 18.6499 84.5549 18.6032C84.728 18.5564 84.9187 18.5201 85.1271 18.4943C85.3339 18.4685 85.5086 18.4459 85.6513 18.4266C85.7955 18.4072 85.9053 18.3766 85.9807 18.3346C86.056 18.2927 86.0937 18.2249 86.0937 18.1314V18.0443C86.0937 17.7911 86.0184 17.5919 85.8677 17.4467C85.7186 17.2999 85.5038 17.2265 85.2233 17.2265C84.9572 17.2265 84.74 17.2854 84.5717 17.4031C84.405 17.5209 84.288 17.6596 84.2206 17.8193L83.8143 17.6717C83.8976 17.4685 84.0131 17.3064 84.1605 17.1854C84.308 17.0628 84.4731 16.9749 84.6558 16.9217C84.8386 16.8668 85.0237 16.8394 85.2113 16.8394C85.3523 16.8394 85.499 16.858 85.6513 16.8951C85.8052 16.9322 85.9478 16.9967 86.0793 17.0886C86.2107 17.1789 86.3173 17.3056 86.3991 17.4685C86.4808 17.6298 86.5217 17.8346 86.5217 18.083V20.6064H86.0937V20.0185H86.0672C86.0159 20.1282 85.9398 20.2347 85.8388 20.3379C85.7378 20.4411 85.6112 20.5258 85.4589 20.5919C85.3066 20.6581 85.1279 20.6911 84.9227 20.6911ZM84.9804 20.2968C85.2081 20.2968 85.4052 20.246 85.5719 20.1443C85.7386 20.0427 85.8669 19.908 85.9566 19.7403C86.048 19.5709 86.0937 19.3846 86.0937 19.1814V18.6443C86.0616 18.6749 86.0079 18.7024 85.9326 18.7266C85.8589 18.7508 85.7731 18.7725 85.6753 18.7919C85.5791 18.8096 85.483 18.8249 85.3868 18.8379C85.2906 18.8508 85.2041 18.862 85.1271 18.8717C84.9187 18.8975 84.7408 18.9379 84.5933 18.9927C84.4459 19.0475 84.3328 19.1233 84.2543 19.2201C84.1758 19.3153 84.1365 19.4379 84.1365 19.5879C84.1365 19.8137 84.2166 19.9887 84.3769 20.1129C84.5372 20.2355 84.7384 20.2968 84.9804 20.2968Z" fill="#323232"/>
<path d="M82.6531 17.1992H82.2011C82.1674 17.0298 82.1065 16.8734 82.0183 16.7298C81.9318 16.5847 81.8228 16.4581 81.6913 16.35C81.5599 16.2419 81.4108 16.1581 81.2441 16.0984C81.0774 16.0387 80.8971 16.0089 80.7031 16.0089C80.3921 16.0089 80.1084 16.0903 79.8519 16.2532C79.5971 16.4161 79.3927 16.6556 79.2388 16.9718C79.0865 17.2863 79.0104 17.6718 79.0104 18.1283C79.0104 18.5879 79.0865 18.9751 79.2388 19.2896C79.3927 19.6041 79.5971 19.8428 79.8519 20.0057C80.1084 20.167 80.3921 20.2477 80.7031 20.2477C80.8971 20.2477 81.0774 20.2178 81.2441 20.1581C81.4108 20.0985 81.5599 20.0154 81.6913 19.9089C81.8228 19.8009 81.9318 19.6743 82.0183 19.5291C82.1065 19.3839 82.1674 19.2267 82.2011 19.0573H82.6531C82.613 19.2847 82.5377 19.4968 82.4271 19.6936C82.3181 19.8888 82.1786 20.0598 82.0087 20.2065C81.8404 20.3533 81.6465 20.4678 81.4269 20.5501C81.2072 20.6324 80.966 20.6735 80.7031 20.6735C80.2896 20.6735 79.9225 20.5694 79.6019 20.3614C79.2813 20.1517 79.0296 19.8565 78.8469 19.4759C78.6658 19.0952 78.5752 18.646 78.5752 18.1283C78.5752 17.6105 78.6658 17.1613 78.8469 16.7806C79.0296 16.4 79.2813 16.1056 79.6019 15.8976C79.9225 15.6879 80.2896 15.583 80.7031 15.583C80.966 15.583 81.2072 15.6242 81.4269 15.7064C81.6465 15.7871 81.8404 15.9016 82.0087 16.05C82.1786 16.1968 82.3181 16.3677 82.4271 16.5629C82.5377 16.7581 82.613 16.9702 82.6531 17.1992Z" fill="#323232"/>
<path d="M73.6967 20.6839C73.3777 20.6839 73.0956 20.6024 72.8503 20.4395C72.6067 20.2766 72.4159 20.0516 72.2781 19.7645C72.1402 19.4758 72.0713 19.1427 72.0713 18.7653C72.0713 18.3846 72.1402 18.0499 72.2781 17.7612C72.4159 17.4709 72.6067 17.2451 72.8503 17.0838C73.0956 16.9209 73.3777 16.8394 73.6967 16.8394C74.0157 16.8394 74.297 16.9209 74.5406 17.0838C74.7843 17.2467 74.975 17.4725 75.1129 17.7612C75.2524 18.0499 75.3221 18.3846 75.3221 18.7653C75.3221 19.1427 75.2532 19.4758 75.1153 19.7645C74.9774 20.0516 74.7859 20.2766 74.5406 20.4395C74.297 20.6024 74.0157 20.6839 73.6967 20.6839ZM73.6967 20.2895C73.9532 20.2895 74.1704 20.2201 74.3483 20.0814C74.5262 19.9427 74.6609 19.758 74.7522 19.5274C74.8452 19.2967 74.8917 19.0427 74.8917 18.7653C74.8917 18.4878 74.8452 18.233 74.7522 18.0007C74.6609 17.7685 74.5262 17.5822 74.3483 17.4419C74.1704 17.3015 73.9532 17.2314 73.6967 17.2314C73.4418 17.2314 73.2246 17.3015 73.0451 17.4419C72.8672 17.5822 72.7317 17.7685 72.6387 18.0007C72.5474 18.233 72.5017 18.4878 72.5017 18.7653C72.5017 19.0427 72.5474 19.2967 72.6387 19.5274C72.7317 19.758 72.8672 19.9427 73.0451 20.0814C73.223 20.2201 73.4402 20.2895 73.6967 20.2895Z" fill="#323232"/>
<path d="M69.6895 20.6113V16.8951H70.1054V17.466H70.1367C70.2104 17.2789 70.3387 17.1281 70.5214 17.0136C70.7057 16.8975 70.9141 16.8394 71.1465 16.8394C71.1818 16.8394 71.2211 16.8402 71.2644 16.8418C71.3076 16.8434 71.3437 16.8451 71.3726 16.8467V17.2846C71.3533 17.2814 71.3197 17.2765 71.2716 17.2701C71.2235 17.2636 71.1714 17.2604 71.1153 17.2604C70.9229 17.2604 70.7514 17.3015 70.6007 17.3838C70.4517 17.4644 70.3338 17.5765 70.2473 17.7201C70.1607 17.8636 70.1174 18.0273 70.1174 18.2112V20.6113H69.6895Z" fill="#323232"/>
<path d="M66.9775 20.6839C66.6329 20.6839 66.3348 20.6032 66.0831 20.4419C65.8314 20.279 65.6367 20.054 65.4988 19.7669C65.3626 19.4782 65.2944 19.1459 65.2944 18.7701C65.2944 18.3959 65.3626 18.0636 65.4988 17.7733C65.6367 17.4814 65.8266 17.2531 66.0687 17.0886C66.3123 16.9225 66.5936 16.8394 66.9126 16.8394C67.113 16.8394 67.3061 16.8765 67.4921 16.9507C67.678 17.0233 67.8447 17.1354 67.9922 17.287C68.1413 17.437 68.2591 17.6265 68.3457 17.8556C68.4322 18.083 68.4755 18.3524 68.4755 18.6637V18.8766H65.5902V18.4967H68.0379C68.0379 18.258 67.9898 18.0435 67.8936 17.8532C67.7991 17.6612 67.6668 17.5096 67.4969 17.3983C67.3286 17.287 67.1338 17.2314 66.9126 17.2314C66.6786 17.2314 66.4726 17.2943 66.2947 17.4201C66.1167 17.5459 65.9773 17.712 65.8763 17.9185C65.7769 18.1249 65.7264 18.3507 65.7248 18.5959V18.8233C65.7248 19.1185 65.7753 19.3766 65.8763 19.5975C65.9789 19.8169 66.124 19.9871 66.3115 20.108C66.4991 20.229 66.7211 20.2895 66.9775 20.2895C67.1523 20.2895 67.3053 20.2621 67.4368 20.2072C67.5698 20.1524 67.6812 20.079 67.771 19.9871C67.8624 19.8935 67.9313 19.7911 67.9778 19.6798L68.3841 19.8129C68.328 19.9693 68.2359 20.1137 68.1076 20.246C67.981 20.3782 67.8223 20.4847 67.6315 20.5653C67.4424 20.6443 67.2244 20.6839 66.9775 20.6839Z" fill="#323232"/>
<path d="M60.9221 20.6053V20.2642L63.656 16.0568H60.9077V15.6504H64.1922V15.9915L61.4559 20.1989H64.2162V20.6053H60.9221Z" fill="#323232"/>
<path d="M55.0891 18.2839V20.6065H54.6611V16.8903H55.0771V17.4734H55.1156C55.2021 17.283 55.3368 17.1306 55.5195 17.0161C55.7039 16.9 55.9315 16.8419 56.2024 16.8419C56.4508 16.8419 56.6688 16.8943 56.8564 16.9992C57.0455 17.1024 57.1922 17.2548 57.2964 17.4564C57.4022 17.658 57.4551 17.9056 57.4551 18.1992V20.6065H57.0271V18.2258C57.0271 17.9209 56.9421 17.6798 56.7722 17.5024C56.6039 17.325 56.3779 17.2363 56.0942 17.2363C55.9002 17.2363 55.7279 17.2782 55.5772 17.3621C55.4265 17.4459 55.3071 17.5669 55.219 17.725C55.1324 17.8814 55.0891 18.0677 55.0891 18.2839Z" fill="#323232"/>
<path d="M51.6527 20.6911C51.4299 20.6911 51.2263 20.6476 51.042 20.5605C50.8576 20.4718 50.711 20.3443 50.602 20.1782C50.493 20.0105 50.4385 19.8072 50.4385 19.5685C50.4385 19.3846 50.4729 19.2298 50.5419 19.104C50.6108 18.9782 50.7086 18.8749 50.8352 18.7943C50.9618 18.7137 51.1117 18.6499 51.2848 18.6032C51.458 18.5564 51.6487 18.5201 51.8571 18.4943C52.0639 18.4685 52.2386 18.4459 52.3813 18.4266C52.5255 18.4072 52.6353 18.3766 52.7107 18.3346C52.786 18.2927 52.8237 18.2249 52.8237 18.1314V18.0443C52.8237 17.7911 52.7483 17.5919 52.5977 17.4467C52.4486 17.2999 52.2338 17.2265 51.9533 17.2265C51.6872 17.2265 51.47 17.2854 51.3017 17.4031C51.135 17.5209 51.0179 17.6596 50.9506 17.8193L50.5443 17.6717C50.6276 17.4685 50.743 17.3064 50.8905 17.1854C51.038 17.0628 51.2031 16.9749 51.3858 16.9217C51.5686 16.8668 51.7537 16.8394 51.9412 16.8394C52.0823 16.8394 52.229 16.858 52.3813 16.8951C52.5351 16.9322 52.6778 16.9967 52.8092 17.0886C52.9407 17.1789 53.0473 17.3056 53.129 17.4685C53.2108 17.6298 53.2517 17.8346 53.2517 18.083V20.6064H52.8237V20.0185H52.7972C52.7459 20.1282 52.6698 20.2347 52.5688 20.3379C52.4678 20.4411 52.3412 20.5258 52.1889 20.5919C52.0366 20.6581 51.8579 20.6911 51.6527 20.6911ZM51.7104 20.2968C51.938 20.2968 52.1352 20.246 52.3019 20.1443C52.4686 20.0427 52.5969 19.908 52.6866 19.7403C52.778 19.5709 52.8237 19.3846 52.8237 19.1814V18.6443C52.7916 18.6749 52.7379 18.7024 52.6626 18.7266C52.5888 18.7508 52.5031 18.7725 52.4053 18.7919C52.3091 18.8096 52.2129 18.8249 52.1168 18.8379C52.0206 18.8508 51.934 18.862 51.8571 18.8717C51.6487 18.8975 51.4708 18.9379 51.3233 18.9927C51.1758 19.0475 51.0628 19.1233 50.9843 19.2201C50.9057 19.3153 50.8665 19.4379 50.8665 19.5879C50.8665 19.8137 50.9466 19.9887 51.1069 20.1129C51.2672 20.2355 51.4684 20.2968 51.7104 20.2968Z" fill="#323232"/>
<path d="M46.2905 22V16.8902H46.7065V17.5991H46.757C46.8083 17.4878 46.8788 17.3741 46.9686 17.258C47.0583 17.1402 47.177 17.041 47.3244 16.9604C47.4735 16.8797 47.6611 16.8394 47.8871 16.8394C48.1916 16.8394 48.4577 16.9201 48.6853 17.0814C48.9146 17.241 49.0925 17.4652 49.2191 17.754C49.3474 18.0411 49.4115 18.3757 49.4115 18.758C49.4115 19.1419 49.3474 19.4782 49.2191 19.7669C49.0925 20.0556 48.9146 20.2806 48.6853 20.4419C48.4577 20.6032 48.1932 20.6839 47.8919 20.6839C47.6691 20.6839 47.4823 20.6435 47.3316 20.5629C47.1826 20.4822 47.0615 20.383 46.9686 20.2653C46.8772 20.1459 46.8067 20.0298 46.757 19.9169H46.7185V22H46.2905ZM46.7137 18.7508C46.7137 19.0508 46.7578 19.3169 46.846 19.5492C46.9357 19.7798 47.064 19.9613 47.2307 20.0935C47.399 20.2242 47.6025 20.2895 47.8414 20.2895C48.0866 20.2895 48.2934 20.2218 48.4617 20.0863C48.6316 19.9492 48.7607 19.7645 48.8488 19.5322C48.9386 19.3 48.9835 19.0395 48.9835 18.7508C48.9835 18.4653 48.9394 18.208 48.8512 17.979C48.7647 17.7499 48.6365 17.5685 48.4665 17.4346C48.2966 17.2991 48.0882 17.2314 47.8414 17.2314C47.6009 17.2314 47.3966 17.2967 47.2283 17.4273C47.0599 17.5564 46.9317 17.7354 46.8435 17.9644C46.757 18.1919 46.7137 18.454 46.7137 18.7508Z" fill="#323232"/>
<path d="M43.2826 20.6911C43.0598 20.6911 42.8562 20.6476 42.6719 20.5605C42.4875 20.4718 42.3409 20.3443 42.2319 20.1782C42.1229 20.0105 42.0684 19.8072 42.0684 19.5685C42.0684 19.3846 42.1028 19.2298 42.1718 19.104C42.2407 18.9782 42.3385 18.8749 42.4651 18.7943C42.5917 18.7137 42.7416 18.6499 42.9147 18.6032C43.0878 18.5564 43.2786 18.5201 43.487 18.4943C43.6938 18.4685 43.8685 18.4459 44.0111 18.4266C44.1554 18.4072 44.2652 18.3766 44.3405 18.3346C44.4159 18.2927 44.4536 18.2249 44.4536 18.1314V18.0443C44.4536 17.7911 44.3782 17.5919 44.2275 17.4467C44.0785 17.2999 43.8637 17.2265 43.5832 17.2265C43.3171 17.2265 43.0999 17.2854 42.9316 17.4031C42.7648 17.5209 42.6478 17.6596 42.5805 17.8193L42.1742 17.6717C42.2575 17.4685 42.3729 17.3064 42.5204 17.1854C42.6679 17.0628 42.833 16.9749 43.0157 16.9217C43.1984 16.8668 43.3836 16.8394 43.5711 16.8394C43.7122 16.8394 43.8589 16.858 44.0111 16.8951C44.165 16.9322 44.3077 16.9967 44.4391 17.0886C44.5706 17.1789 44.6772 17.3056 44.7589 17.4685C44.8407 17.6298 44.8815 17.8346 44.8815 18.083V20.6064H44.4536V20.0185H44.4271C44.3758 20.1282 44.2997 20.2347 44.1987 20.3379C44.0977 20.4411 43.9711 20.5258 43.8188 20.5919C43.6665 20.6581 43.4878 20.6911 43.2826 20.6911ZM43.3403 20.2968C43.5679 20.2968 43.7651 20.246 43.9318 20.1443C44.0985 20.0427 44.2267 19.908 44.3165 19.7403C44.4079 19.5709 44.4536 19.3846 44.4536 19.1814V18.6443C44.4215 18.6749 44.3678 18.7024 44.2925 18.7266C44.2187 18.7508 44.133 18.7725 44.0352 18.7919C43.939 18.8096 43.8428 18.8249 43.7467 18.8379C43.6505 18.8508 43.5639 18.862 43.487 18.8717C43.2786 18.8975 43.1007 18.9379 42.9532 18.9927C42.8057 19.0475 42.6927 19.1233 42.6142 19.2201C42.5356 19.3153 42.4963 19.4379 42.4963 19.5879C42.4963 19.8137 42.5765 19.9887 42.7368 20.1129C42.8971 20.2355 43.0983 20.2968 43.3403 20.2968Z" fill="#323232"/>
<path d="M40.3117 15.6504H40.7613V19.2238C40.7597 19.5464 40.702 19.8158 40.5882 20.0319C40.4744 20.2464 40.3173 20.4069 40.1169 20.5134C39.9166 20.6198 39.6865 20.6731 39.4269 20.6731C39.172 20.6731 38.9444 20.6255 38.744 20.5303C38.5436 20.4352 38.3857 20.3013 38.2703 20.1287C38.1565 19.9561 38.0996 19.7537 38.0996 19.5214H38.542C38.542 19.6682 38.5805 19.798 38.6574 19.9109C38.7344 20.0222 38.8394 20.1093 38.9724 20.1722C39.1071 20.2351 39.2585 20.2666 39.4269 20.2666C39.6016 20.2666 39.7547 20.2295 39.8861 20.1553C40.0191 20.0811 40.1233 19.9674 40.1987 19.8142C40.274 19.6593 40.3117 19.4625 40.3117 19.2238V15.6504Z" fill="#323232"/>
<path d="M33.4697 20.6839C33.1251 20.6839 32.8269 20.6032 32.5753 20.4419C32.3236 20.279 32.1289 20.054 31.991 19.7669C31.8547 19.4782 31.7866 19.1459 31.7866 18.7701C31.7866 18.3959 31.8547 18.0636 31.991 17.7733C32.1289 17.4814 32.3188 17.2531 32.5608 17.0886C32.8045 16.9225 33.0858 16.8394 33.4048 16.8394C33.6052 16.8394 33.7983 16.8765 33.9843 16.9507C34.1702 17.0233 34.3369 17.1354 34.4844 17.287C34.6335 17.437 34.7513 17.6265 34.8378 17.8556C34.9244 18.083 34.9677 18.3524 34.9677 18.6637V18.8766H32.0824V18.4967H34.5301C34.5301 18.258 34.482 18.0435 34.3858 17.8532C34.2912 17.6612 34.159 17.5096 33.9891 17.3983C33.8208 17.287 33.626 17.2314 33.4048 17.2314C33.1708 17.2314 32.9648 17.2943 32.7869 17.4201C32.6089 17.5459 32.4695 17.712 32.3685 17.9185C32.2691 18.1249 32.2186 18.3507 32.217 18.5959V18.8233C32.217 19.1185 32.2675 19.3766 32.3685 19.5975C32.4711 19.8169 32.6162 19.9871 32.8037 20.108C32.9912 20.229 33.2133 20.2895 33.4697 20.2895C33.6444 20.2895 33.7975 20.2621 33.929 20.2072C34.062 20.1524 34.1734 20.079 34.2632 19.9871C34.3546 19.8935 34.4235 19.7911 34.47 19.6798L34.8763 19.8129C34.8202 19.9693 34.728 20.1137 34.5998 20.246C34.4732 20.3782 34.3145 20.4847 34.1237 20.5653C33.9346 20.6443 33.7166 20.6839 33.4697 20.6839Z" fill="#323232"/>
<path d="M28.1858 18.2827V20.6053H27.7578V15.6504H28.1858V17.4722H28.2243C28.3108 17.2802 28.4447 17.127 28.6258 17.0125C28.8085 16.898 29.0394 16.8407 29.3183 16.8407C29.5683 16.8407 29.788 16.8923 29.9771 16.9956C30.1662 17.0988 30.3137 17.2512 30.4195 17.4528C30.5253 17.6544 30.5782 17.9028 30.5782 18.198V20.6053H30.1478V18.2246C30.1478 17.9182 30.0629 17.677 29.8929 17.5012C29.7246 17.3238 29.497 17.2351 29.2101 17.2351C29.0129 17.2351 28.8374 17.277 28.6835 17.3609C28.5296 17.4448 28.4078 17.5657 28.318 17.7238C28.2299 17.8803 28.1858 18.0665 28.1858 18.2827Z" fill="#323232"/>
<path d="M22.9932 16.0568V15.6504H26.5637V16.0568H25.0033V20.6053H24.5536V16.0568H22.9932Z" fill="#323232"/>
</svg>
